<?xml version="1.0" encoding="UTF-8" standalone="no"?>
<!-- Created with Inkscape (http://www.inkscape.org/) -->

<svg
   xmlns:dc="http://purl.org/dc/elements/1.1/"
   xmlns:cc="http://creativecommons.org/ns#"
   xmlns:rdf="http://www.w3.org/1999/02/22-rdf-syntax-ns#"
   xmlns:svg="http://www.w3.org/2000/svg"
   xmlns="http://www.w3.org/2000/svg"
   xmlns:sodipodi="http://sodipodi.sourceforge.net/DTD/sodipodi-0.dtd"
   xmlns:inkscape="http://www.inkscape.org/namespaces/inkscape"
   width="62.613987mm"
   height="16.581511mm"
   viewBox="0 0 62.613987 16.581511"
   version="1.1"
   id="svg8"
   inkscape:version="0.92.4 (5da689c313, 2019-01-14)"
   sodipodi:docname="mongoDB.svg">
  <defs
     id="defs2">
    <linearGradient
       id="XMLID_17_-9"
       gradientUnits="userSpaceOnUse"
       x1="174.0737"
       y1="215.5488"
       x2="132.27631"
       y2="141.7533">
      <stop
         offset="0"
         style="stop-color:#FB7655"
         id="stop3272-4" />
      <stop
         offset="0"
         style="stop-color:#FB7655"
         id="stop3274-5" />
      <stop
         offset="0.41"
         style="stop-color:#E42B1E"
         id="stop3276-1" />
      <stop
         offset="0.99"
         style="stop-color:#990000"
         id="stop3278-0" />
      <stop
         offset="1"
         style="stop-color:#990000"
         id="stop3280-3" />
    </linearGradient>
    <linearGradient
       id="XMLID_18_-7"
       gradientUnits="userSpaceOnUse"
       x1="194.895"
       y1="153.5576"
       x2="141.0276"
       y2="117.4093">
      <stop
         offset="0"
         style="stop-color:#871101"
         id="stop3285-8" />
      <stop
         offset="0"
         style="stop-color:#871101"
         id="stop3287-8" />
      <stop
         offset="0.99"
         style="stop-color:#911209"
         id="stop3289-6" />
      <stop
         offset="1"
         style="stop-color:#911209"
         id="stop3291-0" />
    </linearGradient>
    <linearGradient
       id="XMLID_19_-4"
       gradientUnits="userSpaceOnUse"
       x1="151.79539"
       y1="217.7852"
       x2="97.929703"
       y2="181.638">
      <stop
         offset="0"
         style="stop-color:#871101"
         id="stop3296-6" />
      <stop
         offset="0"
         style="stop-color:#871101"
         id="stop3298-7" />
      <stop
         offset="0.99"
         style="stop-color:#911209"
         id="stop3300-6" />
      <stop
         offset="1"
         style="stop-color:#911209"
         id="stop3302-0" />
    </linearGradient>
    <linearGradient
       id="XMLID_20_-9"
       gradientUnits="userSpaceOnUse"
       x1="38.696301"
       y1="127.3906"
       x2="47.046902"
       y2="181.66141">
      <stop
         offset="0"
         style="stop-color:#FFFFFF"
         id="stop3307-7" />
      <stop
         offset="0"
         style="stop-color:#FFFFFF"
         id="stop3309-5" />
      <stop
         offset="0.23"
         style="stop-color:#E57252"
         id="stop3311-9" />
      <stop
         offset="0.46"
         style="stop-color:#DE3B20"
         id="stop3313-7" />
      <stop
         offset="0.99"
         style="stop-color:#A60003"
         id="stop3315-8" />
      <stop
         offset="1"
         style="stop-color:#A60003"
         id="stop3317-5" />
    </linearGradient>
    <linearGradient
       id="XMLID_21_-3"
       gradientUnits="userSpaceOnUse"
       x1="96.132797"
       y1="76.715302"
       x2="99.209602"
       y2="132.1021">
      <stop
         offset="0"
         style="stop-color:#FFFFFF"
         id="stop3322-3" />
      <stop
         offset="0"
         style="stop-color:#FFFFFF"
         id="stop3324-8" />
      <stop
         offset="0.23"
         style="stop-color:#E4714E"
         id="stop3326-3" />
      <stop
         offset="0.56"
         style="stop-color:#BE1A0D"
         id="stop3328-7" />
      <stop
         offset="0.99"
         style="stop-color:#A80D00"
         id="stop3330-9" />
      <stop
         offset="1"
         style="stop-color:#A80D00"
         id="stop3332-3" />
    </linearGradient>
    <linearGradient
       id="XMLID_22_-7"
       gradientUnits="userSpaceOnUse"
       x1="147.103"
       y1="25.521"
       x2="156.3141"
       y2="65.216202">
      <stop
         offset="0"
         style="stop-color:#FFFFFF"
         id="stop3337-8" />
      <stop
         offset="0"
         style="stop-color:#FFFFFF"
         id="stop3339-7" />
      <stop
         offset="0.18"
         style="stop-color:#E46342"
         id="stop3341-4" />
      <stop
         offset="0.4"
         style="stop-color:#C82410"
         id="stop3343-1" />
      <stop
         offset="0.99"
         style="stop-color:#A80D00"
         id="stop3345-9" />
      <stop
         offset="1"
         style="stop-color:#A80D00"
         id="stop3347-0" />
    </linearGradient>
    <linearGradient
       id="XMLID_23_-9"
       gradientUnits="userSpaceOnUse"
       x1="118.9761"
       y1="11.5415"
       x2="158.66859"
       y2="-8.3048">
      <stop
         offset="0"
         style="stop-color:#FFFFFF"
         id="stop3352-8" />
      <stop
         offset="0"
         style="stop-color:#FFFFFF"
         id="stop3354-8" />
      <stop
         offset="0.54"
         style="stop-color:#C81F11"
         id="stop3356-5" />
      <stop
         offset="0.99"
         style="stop-color:#BF0905"
         id="stop3358-8" />
      <stop
         offset="1"
         style="stop-color:#BF0905"
         id="stop3360-4" />
    </linearGradient>
    <linearGradient
       id="XMLID_24_-3"
       gradientUnits="userSpaceOnUse"
       x1="3.9033"
       y1="113.5547"
       x2="7.1701999"
       y2="146.2628">
      <stop
         offset="0"
         style="stop-color:#FFFFFF"
         id="stop3365-7" />
      <stop
         offset="0"
         style="stop-color:#FFFFFF"
         id="stop3367-1" />
      <stop
         offset="0.31"
         style="stop-color:#DE4024"
         id="stop3369-3" />
      <stop
         offset="0.99"
         style="stop-color:#BF190B"
         id="stop3371-8" />
      <stop
         offset="1"
         style="stop-color:#BF190B"
         id="stop3373-0" />
    </linearGradient>
    <linearGradient
       gradientTransform="translate(-94.589335,-695.35944)"
       id="XMLID_25_-9"
       gradientUnits="userSpaceOnUse"
       x1="-18.5557"
       y1="155.10451"
       x2="135.0152"
       y2="-2.8092999">
      <stop
         offset="0"
         style="stop-color:#BD0012"
         id="stop3380-7" />
      <stop
         offset="0"
         style="stop-color:#BD0012"
         id="stop3382-9" />
      <stop
         offset="0.07"
         style="stop-color:#FFFFFF"
         id="stop3384-9" />
      <stop
         offset="0.17"
         style="stop-color:#FFFFFF"
         id="stop3386-3" />
      <stop
         offset="0.27"
         style="stop-color:#C82F1C"
         id="stop3388-2" />
      <stop
         offset="0.33"
         style="stop-color:#820C01"
         id="stop3390-4" />
      <stop
         offset="0.46"
         style="stop-color:#A31601"
         id="stop3392-3" />
      <stop
         offset="0.72"
         style="stop-color:#B31301"
         id="stop3394-7" />
      <stop
         offset="0.99"
         style="stop-color:#E82609"
         id="stop3396-1" />
      <stop
         offset="1"
         style="stop-color:#E82609"
         id="stop3398-2" />
    </linearGradient>
    <linearGradient
       gradientTransform="translate(-94.589335,-695.35944)"
       id="XMLID_26_-2"
       gradientUnits="userSpaceOnUse"
       x1="99.074699"
       y1="171.0332"
       x2="52.817699"
       y2="159.61659">
      <stop
         offset="0"
         style="stop-color:#8C0C01"
         id="stop3403-0" />
      <stop
         offset="0"
         style="stop-color:#8C0C01"
         id="stop3405-2" />
      <stop
         offset="0.54"
         style="stop-color:#990C00"
         id="stop3407-1" />
      <stop
         offset="0.99"
         style="stop-color:#A80D0E"
         id="stop3409-7" />
      <stop
         offset="1"
         style="stop-color:#A80D0E"
         id="stop3411-5" />
    </linearGradient>
    <linearGradient
       gradientTransform="translate(-94.589335,-695.35944)"
       id="XMLID_27_-1"
       gradientUnits="userSpaceOnUse"
       x1="178.52589"
       y1="115.5146"
       x2="137.43269"
       y2="78.683998">
      <stop
         offset="0"
         style="stop-color:#7E110B"
         id="stop3416-7" />
      <stop
         offset="0"
         style="stop-color:#7E110B"
         id="stop3418-4" />
      <stop
         offset="0.99"
         style="stop-color:#9E0C00"
         id="stop3420-1" />
      <stop
         offset="1"
         style="stop-color:#9E0C00"
         id="stop3422-7" />
    </linearGradient>
    <linearGradient
       gradientTransform="translate(-94.589335,-695.35944)"
       id="XMLID_28_-1"
       gradientUnits="userSpaceOnUse"
       x1="193.6235"
       y1="47.937"
       x2="173.15421"
       y2="26.053801">
      <stop
         offset="0"
         style="stop-color:#79130D"
         id="stop3427-1" />
      <stop
         offset="0"
         style="stop-color:#79130D"
         id="stop3429-1" />
      <stop
         offset="0.99"
         style="stop-color:#9E120B"
         id="stop3431-7" />
      <stop
         offset="1"
         style="stop-color:#9E120B"
         id="stop3433-0" />
    </linearGradient>
    <radialGradient
       gradientTransform="translate(-94.589335,-695.35944)"
       id="XMLID_29_-4"
       cx="143.8315"
       cy="79.388199"
       r="50.357601"
       gradientUnits="userSpaceOnUse">
      <stop
         offset="0"
         style="stop-color:#A80D00"
         id="stop3440-0" />
      <stop
         offset="0"
         style="stop-color:#A80D00"
         id="stop3442-8" />
      <stop
         offset="0.99"
         style="stop-color:#7E0E08"
         id="stop3444-5" />
      <stop
         offset="1"
         style="stop-color:#7E0E08"
         id="stop3446-1" />
    </radialGradient>
    <radialGradient
       gradientTransform="translate(-94.589335,-695.35944)"
       id="XMLID_30_-6"
       cx="74.0923"
       cy="145.75101"
       r="66.943703"
       gradientUnits="userSpaceOnUse">
      <stop
         offset="0"
         style="stop-color:#A30C00"
         id="stop3451-6" />
      <stop
         offset="0"
         style="stop-color:#A30C00"
         id="stop3453-2" />
      <stop
         offset="0.99"
         style="stop-color:#800E08"
         id="stop3455-1" />
      <stop
         offset="1"
         style="stop-color:#800E08"
         id="stop3457-9" />
    </radialGradient>
    <linearGradient
       gradientTransform="translate(-94.589335,-695.35944)"
       id="XMLID_31_-6"
       gradientUnits="userSpaceOnUse"
       x1="26.669901"
       y1="197.33591"
       x2="9.9886999"
       y2="140.742">
      <stop
         offset="0"
         style="stop-color:#8B2114"
         id="stop3462-4" />
      <stop
         offset="0"
         style="stop-color:#8B2114"
         id="stop3464-8" />
      <stop
         offset="0.43"
         style="stop-color:#9E100A"
         id="stop3466-0" />
      <stop
         offset="0.99"
         style="stop-color:#B3100C"
         id="stop3468-8" />
      <stop
         offset="1"
         style="stop-color:#B3100C"
         id="stop3470-1" />
    </linearGradient>
    <linearGradient
       gradientTransform="translate(-94.589335,-695.35944)"
       id="XMLID_32_-0"
       gradientUnits="userSpaceOnUse"
       x1="154.6411"
       y1="9.7979002"
       x2="192.039"
       y2="26.305901">
      <stop
         offset="0"
         style="stop-color:#B31000"
         id="stop3475-2" />
      <stop
         offset="0"
         style="stop-color:#B31000"
         id="stop3477-2" />
      <stop
         offset="0.44"
         style="stop-color:#910F08"
         id="stop3479-9" />
      <stop
         offset="0.99"
         style="stop-color:#791C12"
         id="stop3481-7" />
      <stop
         offset="1"
         style="stop-color:#791C12"
         id="stop3483-5" />
    </linearGradient>
    <style
       id="style1881">.cls-1{fill:#10aa50;}.cls-2{fill:#b8c4c2;}.cls-3{fill:#12924f;}.cls-4{fill:#21313c;}</style>
  </defs>
  <sodipodi:namedview
     id="base"
     pagecolor="#ffffff"
     bordercolor="#666666"
     borderopacity="1.0"
     inkscape:pageopacity="0.0"
     inkscape:pageshadow="2"
     inkscape:zoom="1.355"
     inkscape:cx="-87.278496"
     inkscape:cy="-116.71376"
     inkscape:document-units="mm"
     inkscape:current-layer="layer1"
     showgrid="false"
     showguides="true"
     inkscape:snap-to-guides="false"
     inkscape:snap-grids="false"
     inkscape:snap-midpoints="true"
     inkscape:snap-others="false"
     inkscape:snap-page="true"
     inkscape:window-width="1600"
     inkscape:window-height="836"
     inkscape:window-x="0"
     inkscape:window-y="27"
     inkscape:window-maximized="1">
    <inkscape:grid
       type="xygrid"
       id="grid1445"
       originx="-74.277067"
       originy="-201.40271" />
  </sodipodi:namedview>
  <metadata
     id="metadata5">
    <rdf:RDF>
      <cc:Work
         rdf:about="">
        <dc:format>image/svg+xml</dc:format>
        <dc:type
           rdf:resource="http://purl.org/dc/dcmitype/StillImage" />
        <dc:title />
      </cc:Work>
    </rdf:RDF>
  </metadata>
  <g
     inkscape:label="Capa 1"
     inkscape:groupmode="layer"
     id="layer1"
     transform="translate(-74.277068,-79.015792)">
    <g
       id="g358"
       transform="matrix(0.26458333,0,0,0.26458333,33.784635,128.57744)"
       style="fill:#ffffff">
      <g
         id="g324"
         class="C B"
         style="fill:#ffffff;stroke:#ffffff;stroke-width:1.68200004"
         transform="matrix(0.77414831,0,0,0.77414831,1.5420128,-191.92839)">
        <g
           id="g316"
           class="D"
           style="stroke-linecap:round;fill:#ffffff" />
        <g
           id="g322"
           class="E"
           style="stroke-linejoin:round;fill:#ffffff" />
      </g>
      <g
         id="g330"
         class="C"
         style="fill:#ffffff;stroke:#ffffff"
         transform="matrix(0.77414831,0,0,0.77414831,1.5420128,-191.92839)" />
      <g
         id="g1926"
         transform="matrix(0.21565079,0,0,0.21565079,151.11996,-188.33102)"
         style="fill:#ffffff">
        <path
           id="path1887"
           d="M 72.535827,109.0694 C 71.560223,62.651537 74.29998,54.56905 72.773411,4.69 c -0.43,6 -1.22,9.78 -6.32,14.33 -10.24,9.13 -53.73,44.57 -57.3899996,121.31 -3.147182,66.03545 44.3192806,108.70616 57.4721846,118.47622 2.230087,-7.27227 4.372105,-26.6857 4.066134,-35.49066"
           class="cls-1"
           inkscape:connector-curvature="0"
           style="fill:#ffffff"
           sodipodi:nodetypes="cccccc" />
        <path
           id="path1889"
           d="m 72.5,222.46 c -1.41,17.71 -2.42,28 -6,38.12 0,0 2.35,16.86 4,34.72 h 5.84 a 324.73,324.73 0 0 1 6.37,-37.39 C 75.15,254.19 72.79,238 72.5,222.46 Z"
           class="cls-2"
           inkscape:connector-curvature="0"
           style="fill:#ffffff" />
        <path
           id="path1891"
           d="m 84.197227,257.92 v 0 c -7.64,-3.53 -9.689582,-19.79264 -10.029582,-35.19264 1.889401,-25.40341 2.493635,-51.36993 1.703472,-76.83125 -0.4,-13.36 0.382294,-125.04611 -3.097706,-141.20611 2.380511,5.473228 3.219848,12.301665 6.306589,17.41 8.14,12.72 40.06,30.7 55.36,98.24 11.92,69.66 -23.27277,118.93 -50.242773,137.58 z"
           class="cls-3"
           inkscape:connector-curvature="0"
           style="fill:#ffffff"
           sodipodi:nodetypes="cccccccc" />
        <path
           id="path1893"
           d="m 1089.7,233.5 a 16.59,16.59 0 1 1 16.59,-16.82 16.38,16.38 0 0 1 -16.59,16.82 m 0,-31.68 a 15.1,15.1 0 1 0 15,15.14 14.85,14.85 0 0 0 -15,-15.14 m 4,25.58 -4.28,-9.23 h -3.45 v 9.23 h -2.51 v -21 h 6.19 c 4.61,0 6.53,2 6.53,5.87 0,3.08 -1.45,5 -4.15,5.59 l 4.42,9.51 z m -7.63,-11.4 h 3.63 c 2.94,0 4.06,-1 4.06,-3.68 0,-2.68 -1.07,-3.59 -4.38,-3.59 h -3.31 z"
           class="cls-4"
           inkscape:connector-curvature="0"
           style="fill:#ffffff" />
        <path
           id="path1895"
           d="m 842.79,218.38 c 4.49,3.59 13.46,5.07 21.37,5.07 10.25,0 20.3,-1.9 30.12,-10.77 10,-9.09 16.88,-23 16.88,-45.21 0,-21.34 -8.12,-38.66 -24.78,-48.8 -9.4,-5.91 -21.58,-8.24 -35.47,-8.24 -4,0 -8.12,0.21 -10.46,1.27 a 5.49,5.49 0 0 0 -1.93,3 c -0.42,3.8 -0.42,32.74 -0.42,49.85 0,17.54 0,42 0.42,45 0.22,2.54 1.5,7 4.27,8.87 M 800.15,100.93 c 3.63,0 17.43,0.63 23.85,0.63 12,0 20.29,-0.63 42.72,-0.63 18.8,0 34.62,5.07 45.93,14.78 13.68,11.84 21,28.31 21,48.38 0,28.52 -13,45 -26.07,54.29 -13,9.72 -29.91,15.21 -54,15.21 -12.82,0 -34.83,-0.42 -53.2,-0.63 H 800 c -0.86,-1.69 1.57,-8.28 3.07,-8.45 5,-0.56 6.32,-0.76 8.62,-1.71 3.88,-1.59 4.79,-3.57 5.22,-10.54 0.64,-13.1 0.43,-28.73 0.43,-46.48 0,-12.67 0.21,-37.39 -0.21,-45.21 -0.65,-6.54 -3.41,-8.23 -9,-9.5 a 116.24,116.24 0 0 0 -12,-1.9 c -0.42,-1.27 2.86,-7 3.93,-8.24"
           class="cls-4"
           inkscape:connector-curvature="0"
           style="fill:#ffffff" />
        <path
           id="path1897"
           d="m 986.6,111.65 c -0.85,0.21 -1.92,2.33 -1.92,3.38 -0.22,7.61 -0.43,27.46 -0.43,41.19 a 1.36,1.36 0 0 0 1.07,1.06 c 2.77,0.21 9.61,0.43 15.38,0.43 8.12,0 12.82,-1.06 15.38,-2.33 6.84,-3.38 10,-10.78 10,-18.8 0,-18.38 -12.82,-25.35 -31.83,-25.35 a 57.35,57.35 0 0 0 -7.69,0.42 m 48.5,84.5 c 0,-18.59 -13.68,-29.15 -38.68,-29.15 -1.06,0 -9,-0.21 -10.89,0.21 -0.64,0.21 -1.28,0.63 -1.28,1.06 0,13.31 -0.22,34.64 0.43,43.09 0.43,3.59 3,8.66 6.19,10.14 3.42,1.9 11.11,2.32 16.45,2.32 14.74,0 27.78,-8.23 27.78,-27.67 M 948,101.3 c 1.93,0 7.61,0.63 22.14,0.63 13.67,0 24.78,-0.42 38,-0.42 16.45,0 39.09,5.92 39.09,30.42 0,12 -8.54,21.76 -19.65,26.41 -0.64,0.21 -0.64,0.63 0,0.84 15.81,4 29.69,13.73 29.69,32.32 0,18.17 -11.32,29.58 -27.77,36.76 -10,4.44 -22.43,5.91 -35,5.91 -9.61,0 -35.37,-1 -49.69,-0.84 -1.5,-0.63 1.37,-7.4 2.65,-8.45 a 39.38,39.38 0 0 0 9.69,-1.52 c 5.12,-1.26 5.73,-2.91 6.37,-10.52 0.43,-6.55 0.43,-30 0.43,-46.69 0,-22.82 0.22,-38.23 0,-45.84 -0.21,-5.91 -2.35,-7.82 -6.41,-8.87 -3.2,-0.64 -8.54,-1.27 -12.81,-1.9 -1.07,-1.06 2.22,-7.4 3.28,-8.24"
           class="cls-4"
           inkscape:connector-curvature="0"
           style="fill:#ffffff" />
        <path
           id="path1899"
           d="m 181.75,233.5 a 9.26,9.26 0 0 1 -0.65,-4.27 5.43,5.43 0 0 1 0.65,-2.85 72.58,72.58 0 0 0 8.2,-1.67 c 3.78,-0.94 5.2,-3 5.42,-7.82 0.62,-11.39 0.66,-32.76 0.44,-47.78 v -0.44 c 0,-1.62 0,-3.82 -2,-5.37 a 42.94,42.94 0 0 0 -11.33,-5 c -1.79,-0.53 -2.78,-1.47 -2.73,-2.57 0.05,-1.1 1.18,-2.4 3.51,-2.86 6.19,-0.63 22.41,-4.5 28.78,-7.44 a 4.22,4.22 0 0 1 0.85,3 c 0,0.66 -0.1,1.36 -0.17,2.08 -0.18,2.12 -0.38,4.53 -0.38,6.93 a 1.58,1.58 0 0 0 2.68,0.91 c 12.13,-9.51 23,-12.9 28.57,-12.9 9.17,0 16.31,4.38 21.84,13.4 a 1.47,1.47 0 0 0 1.24,0.73 1.42,1.42 0 0 0 1.16,-0.62 c 11.15,-8.46 22.2,-13.51 29.6,-13.51 17.48,0 27.93,13.09 27.93,35 0,6.3 -0.06,14.29 -0.12,21.74 -0.05,6.54 -0.1,12.67 -0.1,16.91 0,1 1.38,3.88 3.45,4.45 2.56,1.25 6.25,1.89 10.92,2.69 h 0.18 c 0.35,1.26 -0.39,6.15 -1.1,7.15 -1.16,0 -2.76,-0.1 -4.76,-0.2 -3.63,-0.18 -8.61,-0.43 -14.4,-0.43 -11.62,0 -17.69,0.22 -23.49,0.6 -0.44,-1.45 -0.59,-6.13 -0.06,-7.11 A 61.55,61.55 0 0 0 303,224.7 c 3.7,-1.22 4.77,-2.9 5,-7.81 0.09,-3.49 0.76,-34.24 -0.43,-41.54 -1.1,-7.57 -6.8,-16.43 -19.27,-16.43 -4.63,0 -12.1,1.93 -19.22,7.33 a 2.8,2.8 0 0 0 -0.7,1.81 v 0.15 c 0.84,3.94 0.84,8.54 0.84,15.49 0,4 0,8.17 -0.05,12.34 -0.05,8.48 -0.09,16.48 0.05,22.53 0,4.12 2.49,5.11 4.5,5.9 1.09,0.24 1.95,0.45 2.82,0.65 1.67,0.41 3.41,0.83 6,1.24 a 11.49,11.49 0 0 1 -0.1,5.32 4.26,4.26 0 0 1 -0.75,1.81 c -6.46,-0.22 -13.09,-0.41 -22.66,-0.41 -2.9,0 -7.63,0.12 -11.81,0.23 -3.39,0.09 -6.59,0.18 -8.41,0.19 a 8.24,8.24 0 0 1 -0.64,-3.68 6.38,6.38 0 0 1 0.67,-3.44 l 2.57,-0.47 c 2.24,-0.4 4.18,-0.74 6,-1.2 3.16,-1 4.35,-2.72 4.58,-6.75 0.62,-9.4 1.1,-36.49 -0.23,-43.27 -2.26,-10.88 -8.45,-16.4 -18.41,-16.4 -5.83,0 -13.2,2.81 -19.22,7.32 a 5.86,5.86 0 0 0 -1.77,4.35 c 0,3.23 0,7.07 0,11.19 0,13.6 -0.09,30.53 0.24,37.85 0.2,2.26 1,4.94 5.23,5.92 0.93,0.27 2.53,0.53 4.39,0.84 1.07,0.18 2.24,0.37 3.45,0.59 a 15.16,15.16 0 0 1 -0.57,7.15 c -1.86,0 -4.15,-0.12 -6.77,-0.23 -4,-0.18 -9,-0.4 -14.65,-0.4 -6.68,0 -11.33,0.22 -15.06,0.4 -2.51,0.12 -4.68,0.22 -6.85,0.23"
           class="cls-4"
           inkscape:connector-curvature="0"
           style="fill:#ffffff" />
        <path
           id="path1901"
           d="m 396.2,154.49 a 18.22,18.22 0 0 0 -10.2,2.87 c -7.42,4.51 -11.2,13.52 -11.2,26.76 0,24.78 12.41,42.09 30.18,42.09 A 19,19 0 0 0 418,221.6 c 5.46,-4.45 8.36,-13.55 8.36,-26.29 0,-24.41 -12.13,-40.82 -30.18,-40.82 m 3.42,80.91 c -32.1,0 -43.53,-23.55 -43.53,-45.58 0,-15.39 6.29,-27.42 18.7,-35.77 a 57.11,57.11 0 0 1 28.89,-8.54 c 24.49,0 41.6,17.61 41.6,42.84 0,17.14 -6.83,30.68 -19.76,39.14 -6.21,3.8 -17,7.91 -25.9,7.91"
           class="cls-4"
           inkscape:connector-curvature="0"
           style="fill:#ffffff" />
        <path
           id="path1903"
           d="m 723,154.49 a 18.17,18.17 0 0 0 -10.22,2.87 c -7.42,4.51 -11.2,13.52 -11.2,26.76 0,24.78 12.41,42.09 30.18,42.09 a 19,19 0 0 0 13.06,-4.61 c 5.46,-4.45 8.35,-13.55 8.35,-26.29 0,-24.41 -12.12,-40.82 -30.17,-40.82 m 3.42,80.91 c -32.1,0 -43.53,-23.55 -43.53,-45.57 0,-15.41 6.29,-27.43 18.71,-35.78 a 57,57 0 0 1 28.88,-8.54 c 24.49,0 41.6,17.62 41.6,42.83 0,17.16 -6.83,30.69 -19.76,39.14 -6.21,3.81 -17,7.92 -25.9,7.92"
           class="cls-4"
           inkscape:connector-curvature="0"
           style="fill:#ffffff" />
        <path
           id="path1905"
           d="m 614.92,153.65 c -9.89,0 -16.29,7.81 -16.29,19.9 0,12.09 5.51,26.46 21,26.46 2.66,0 7.48,-1.18 9.87,-3.81 3.6,-3.31 6,-10.15 6,-17.37 0,-15.77 -7.68,-25.18 -20.53,-25.18 m -1.28,83.44 a 16.29,16.29 0 0 0 -8,2 c -7.83,5 -11.46,10 -11.46,15.81 0,5.44 2.11,9.77 6.65,13.61 5.5,4.66 12.92,6.93 22.67,6.93 19.19,0 27.79,-10.32 27.79,-20.54 0,-7.12 -3.57,-11.89 -10.92,-14.59 -5.66,-2.07 -15.12,-3.21 -26.7,-3.21 m 1.28,49 c -11.52,0 -19.82,-2.43 -26.91,-7.89 -6.9,-5.32 -10,-13.22 -10,-18.68 a 14.61,14.61 0 0 1 3.78,-9.5 c 2,-2.28 6.65,-6.55 17.4,-13.94 a 0.92,0.92 0 0 0 0.56,-0.85 0.89,0.89 0 0 0 -0.68,-0.88 c -8.85,-3.39 -11.52,-9 -12.33,-12 0,-0.11 0,-0.28 -0.09,-0.47 -0.25,-1.18 -0.49,-2.3 1.12,-3.45 1.24,-0.88 3.22,-2.06 5.34,-3.31 a 71.89,71.89 0 0 0 8.59,-5.59 1.41,1.41 0 0 0 -0.36,-2.2 c -13.1,-4.4 -19.7,-14.13 -19.7,-29 a 28.83,28.83 0 0 1 12.1,-23.73 c 5.27,-4.17 18.5,-9.18 27.07,-9.18 h 0.5 c 8.81,0.21 13.78,2.06 20.66,4.6 a 32.84,32.84 0 0 0 12.22,1.94 c 7.29,0 10.48,-2.31 13.22,-5 a 11.47,11.47 0 0 1 0.7,3.78 14.22,14.22 0 0 1 -2.38,8.68 c -1.49,2.07 -5,3.57 -8.21,3.57 -0.33,0 -0.65,0 -1,-0.05 a 26.94,26.94 0 0 1 -5,-0.83 l -0.82,0.29 c -0.26,0.38 -0.09,0.8 0.12,1.34 a 1.7,1.7 0 0 1 0.12,0.33 58.52,58.52 0 0 1 1.19,8.1 c 0,15.55 -6.13,22.32 -12.76,27.34 a 43.56,43.56 0 0 1 -22,8.52 v 0 c -0.17,0 -1,0.07 -2.56,0.21 -1,0.09 -2.3,0.21 -2.49,0.21 h -0.19 c -1.44,0.4 -5.2,2.19 -5.2,5.52 0,2.76 1.7,6.19 9.83,6.81 l 5.26,0.37 c 10.72,0.75 24.11,1.68 30.41,3.81 a 21.06,21.06 0 0 1 14.07,20.27 c 0,13.95 -9.92,27.07 -26.53,35.09 a 57.66,57.66 0 0 1 -25.09,5.63"
           class="cls-4"
           inkscape:connector-curvature="0"
           style="fill:#ffffff" />
        <path
           id="path1907"
           d="m 565.86,226.06 c -4.7,-0.63 -8.13,-1.27 -12.18,-3.17 a 5.6,5.6 0 0 1 -1.5,-3 c -0.43,-6.55 -0.43,-25.56 -0.43,-38 0,-10.15 -1.7,-19 -6,-25.35 -5.13,-7.19 -12.39,-11.41 -21.79,-11.41 -8.33,0 -19.44,5.7 -28.62,13.52 -0.22,0.21 -1.63,1.55 -1.6,-0.53 0.03,-2.08 0.35,-6.3 0.55,-9 a 4.63,4.63 0 0 0 -1.4,-3.92 c -6,3 -22.83,7 -29.06,7.61 -4.54,0.88 -5.69,5.25 -0.84,6.76 h 0.07 a 41.46,41.46 0 0 1 11,4.84 c 1.92,1.48 1.71,3.59 1.71,5.28 0.21,14.15 0.21,35.91 -0.43,47.74 -0.21,4.65 -1.5,6.34 -4.92,7.19 l 0.32,-0.11 a 66.46,66.46 0 0 1 -7.91,1.48 c -1.07,1.05 -1.07,7.18 0,8.45 2.14,0 13,-0.63 22,-0.63 12.38,0 18.79,0.63 22,0.63 1.29,-1.48 1.71,-7.18 0.86,-8.45 a 45,45 0 0 1 -8.77,-1.27 c -3.41,-0.84 -4.27,-2.54 -4.48,-6.33 -0.42,-9.94 -0.42,-31.06 -0.42,-45.43 0,-4 1.06,-5.91 2.34,-7 4.27,-3.8 11.33,-6.33 17.52,-6.33 6,0 10,1.9 13,4.43 A 18.1,18.1 0 0 1 533,176 c 0.85,8 0.63,24.09 0.63,38 0,7.61 -0.63,9.52 -3.41,10.36 -1.28,0.63 -4.7,1.27 -8.76,1.69 -1.28,1.27 -0.86,7.18 0,8.45 5.55,0 12,-0.63 21.36,-0.63 11.75,0 19.23,0.63 22.22,0.63 1.28,-1.48 1.71,-7 0.86,-8.45"
           class="cls-4"
           inkscape:connector-curvature="0"
           style="fill:#ffffff" />
      </g>
    </g>
  </g>
  <style
     id="style302"><![CDATA[.B{stroke-width:1.682}.C{stroke:#fff}.D{stroke-linecap:round}.E{stroke-linejoin:round}]]></style>
</svg>
