<?xml version="1.0" encoding="UTF-8" standalone="no"?>
<!-- Created with Inkscape (http://www.inkscape.org/) -->

<svg
   xmlns:dc="http://purl.org/dc/elements/1.1/"
   xmlns:cc="http://creativecommons.org/ns#"
   xmlns:rdf="http://www.w3.org/1999/02/22-rdf-syntax-ns#"
   xmlns:svg="http://www.w3.org/2000/svg"
   xmlns="http://www.w3.org/2000/svg"
   xmlns:sodipodi="http://sodipodi.sourceforge.net/DTD/sodipodi-0.dtd"
   xmlns:inkscape="http://www.inkscape.org/namespaces/inkscape"
   width="20.616274mm"
   height="16.650131mm"
   viewBox="0 0 20.616274 16.650131"
   version="1.1"
   id="svg8"
   inkscape:version="0.92.4 (5da689c313, 2019-01-14)"
   sodipodi:docname="postgres.svg">
  <defs
     id="defs2">
    <linearGradient
       id="XMLID_17_-9"
       gradientUnits="userSpaceOnUse"
       x1="174.0737"
       y1="215.5488"
       x2="132.27631"
       y2="141.7533">
      <stop
         offset="0"
         style="stop-color:#FB7655"
         id="stop3272-4" />
      <stop
         offset="0"
         style="stop-color:#FB7655"
         id="stop3274-5" />
      <stop
         offset="0.41"
         style="stop-color:#E42B1E"
         id="stop3276-1" />
      <stop
         offset="0.99"
         style="stop-color:#990000"
         id="stop3278-0" />
      <stop
         offset="1"
         style="stop-color:#990000"
         id="stop3280-3" />
    </linearGradient>
    <linearGradient
       id="XMLID_18_-7"
       gradientUnits="userSpaceOnUse"
       x1="194.895"
       y1="153.5576"
       x2="141.0276"
       y2="117.4093">
      <stop
         offset="0"
         style="stop-color:#871101"
         id="stop3285-8" />
      <stop
         offset="0"
         style="stop-color:#871101"
         id="stop3287-8" />
      <stop
         offset="0.99"
         style="stop-color:#911209"
         id="stop3289-6" />
      <stop
         offset="1"
         style="stop-color:#911209"
         id="stop3291-0" />
    </linearGradient>
    <linearGradient
       id="XMLID_19_-4"
       gradientUnits="userSpaceOnUse"
       x1="151.79539"
       y1="217.7852"
       x2="97.929703"
       y2="181.638">
      <stop
         offset="0"
         style="stop-color:#871101"
         id="stop3296-6" />
      <stop
         offset="0"
         style="stop-color:#871101"
         id="stop3298-7" />
      <stop
         offset="0.99"
         style="stop-color:#911209"
         id="stop3300-6" />
      <stop
         offset="1"
         style="stop-color:#911209"
         id="stop3302-0" />
    </linearGradient>
    <linearGradient
       id="XMLID_20_-9"
       gradientUnits="userSpaceOnUse"
       x1="38.696301"
       y1="127.3906"
       x2="47.046902"
       y2="181.66141">
      <stop
         offset="0"
         style="stop-color:#FFFFFF"
         id="stop3307-7" />
      <stop
         offset="0"
         style="stop-color:#FFFFFF"
         id="stop3309-5" />
      <stop
         offset="0.23"
         style="stop-color:#E57252"
         id="stop3311-9" />
      <stop
         offset="0.46"
         style="stop-color:#DE3B20"
         id="stop3313-7" />
      <stop
         offset="0.99"
         style="stop-color:#A60003"
         id="stop3315-8" />
      <stop
         offset="1"
         style="stop-color:#A60003"
         id="stop3317-5" />
    </linearGradient>
    <linearGradient
       id="XMLID_21_-3"
       gradientUnits="userSpaceOnUse"
       x1="96.132797"
       y1="76.715302"
       x2="99.209602"
       y2="132.1021">
      <stop
         offset="0"
         style="stop-color:#FFFFFF"
         id="stop3322-3" />
      <stop
         offset="0"
         style="stop-color:#FFFFFF"
         id="stop3324-8" />
      <stop
         offset="0.23"
         style="stop-color:#E4714E"
         id="stop3326-3" />
      <stop
         offset="0.56"
         style="stop-color:#BE1A0D"
         id="stop3328-7" />
      <stop
         offset="0.99"
         style="stop-color:#A80D00"
         id="stop3330-9" />
      <stop
         offset="1"
         style="stop-color:#A80D00"
         id="stop3332-3" />
    </linearGradient>
    <linearGradient
       id="XMLID_22_-7"
       gradientUnits="userSpaceOnUse"
       x1="147.103"
       y1="25.521"
       x2="156.3141"
       y2="65.216202">
      <stop
         offset="0"
         style="stop-color:#FFFFFF"
         id="stop3337-8" />
      <stop
         offset="0"
         style="stop-color:#FFFFFF"
         id="stop3339-7" />
      <stop
         offset="0.18"
         style="stop-color:#E46342"
         id="stop3341-4" />
      <stop
         offset="0.4"
         style="stop-color:#C82410"
         id="stop3343-1" />
      <stop
         offset="0.99"
         style="stop-color:#A80D00"
         id="stop3345-9" />
      <stop
         offset="1"
         style="stop-color:#A80D00"
         id="stop3347-0" />
    </linearGradient>
    <linearGradient
       id="XMLID_23_-9"
       gradientUnits="userSpaceOnUse"
       x1="118.9761"
       y1="11.5415"
       x2="158.66859"
       y2="-8.3048">
      <stop
         offset="0"
         style="stop-color:#FFFFFF"
         id="stop3352-8" />
      <stop
         offset="0"
         style="stop-color:#FFFFFF"
         id="stop3354-8" />
      <stop
         offset="0.54"
         style="stop-color:#C81F11"
         id="stop3356-5" />
      <stop
         offset="0.99"
         style="stop-color:#BF0905"
         id="stop3358-8" />
      <stop
         offset="1"
         style="stop-color:#BF0905"
         id="stop3360-4" />
    </linearGradient>
    <linearGradient
       id="XMLID_24_-3"
       gradientUnits="userSpaceOnUse"
       x1="3.9033"
       y1="113.5547"
       x2="7.1701999"
       y2="146.2628">
      <stop
         offset="0"
         style="stop-color:#FFFFFF"
         id="stop3365-7" />
      <stop
         offset="0"
         style="stop-color:#FFFFFF"
         id="stop3367-1" />
      <stop
         offset="0.31"
         style="stop-color:#DE4024"
         id="stop3369-3" />
      <stop
         offset="0.99"
         style="stop-color:#BF190B"
         id="stop3371-8" />
      <stop
         offset="1"
         style="stop-color:#BF190B"
         id="stop3373-0" />
    </linearGradient>
    <linearGradient
       gradientTransform="translate(-94.589335,-695.35944)"
       id="XMLID_25_-9"
       gradientUnits="userSpaceOnUse"
       x1="-18.5557"
       y1="155.10451"
       x2="135.0152"
       y2="-2.8092999">
      <stop
         offset="0"
         style="stop-color:#BD0012"
         id="stop3380-7" />
      <stop
         offset="0"
         style="stop-color:#BD0012"
         id="stop3382-9" />
      <stop
         offset="0.07"
         style="stop-color:#FFFFFF"
         id="stop3384-9" />
      <stop
         offset="0.17"
         style="stop-color:#FFFFFF"
         id="stop3386-3" />
      <stop
         offset="0.27"
         style="stop-color:#C82F1C"
         id="stop3388-2" />
      <stop
         offset="0.33"
         style="stop-color:#820C01"
         id="stop3390-4" />
      <stop
         offset="0.46"
         style="stop-color:#A31601"
         id="stop3392-3" />
      <stop
         offset="0.72"
         style="stop-color:#B31301"
         id="stop3394-7" />
      <stop
         offset="0.99"
         style="stop-color:#E82609"
         id="stop3396-1" />
      <stop
         offset="1"
         style="stop-color:#E82609"
         id="stop3398-2" />
    </linearGradient>
    <linearGradient
       gradientTransform="translate(-94.589335,-695.35944)"
       id="XMLID_26_-2"
       gradientUnits="userSpaceOnUse"
       x1="99.074699"
       y1="171.0332"
       x2="52.817699"
       y2="159.61659">
      <stop
         offset="0"
         style="stop-color:#8C0C01"
         id="stop3403-0" />
      <stop
         offset="0"
         style="stop-color:#8C0C01"
         id="stop3405-2" />
      <stop
         offset="0.54"
         style="stop-color:#990C00"
         id="stop3407-1" />
      <stop
         offset="0.99"
         style="stop-color:#A80D0E"
         id="stop3409-7" />
      <stop
         offset="1"
         style="stop-color:#A80D0E"
         id="stop3411-5" />
    </linearGradient>
    <linearGradient
       gradientTransform="translate(-94.589335,-695.35944)"
       id="XMLID_27_-1"
       gradientUnits="userSpaceOnUse"
       x1="178.52589"
       y1="115.5146"
       x2="137.43269"
       y2="78.683998">
      <stop
         offset="0"
         style="stop-color:#7E110B"
         id="stop3416-7" />
      <stop
         offset="0"
         style="stop-color:#7E110B"
         id="stop3418-4" />
      <stop
         offset="0.99"
         style="stop-color:#9E0C00"
         id="stop3420-1" />
      <stop
         offset="1"
         style="stop-color:#9E0C00"
         id="stop3422-7" />
    </linearGradient>
    <linearGradient
       gradientTransform="translate(-94.589335,-695.35944)"
       id="XMLID_28_-1"
       gradientUnits="userSpaceOnUse"
       x1="193.6235"
       y1="47.937"
       x2="173.15421"
       y2="26.053801">
      <stop
         offset="0"
         style="stop-color:#79130D"
         id="stop3427-1" />
      <stop
         offset="0"
         style="stop-color:#79130D"
         id="stop3429-1" />
      <stop
         offset="0.99"
         style="stop-color:#9E120B"
         id="stop3431-7" />
      <stop
         offset="1"
         style="stop-color:#9E120B"
         id="stop3433-0" />
    </linearGradient>
    <radialGradient
       gradientTransform="translate(-94.589335,-695.35944)"
       id="XMLID_29_-4"
       cx="143.8315"
       cy="79.388199"
       r="50.357601"
       gradientUnits="userSpaceOnUse">
      <stop
         offset="0"
         style="stop-color:#A80D00"
         id="stop3440-0" />
      <stop
         offset="0"
         style="stop-color:#A80D00"
         id="stop3442-8" />
      <stop
         offset="0.99"
         style="stop-color:#7E0E08"
         id="stop3444-5" />
      <stop
         offset="1"
         style="stop-color:#7E0E08"
         id="stop3446-1" />
    </radialGradient>
    <radialGradient
       gradientTransform="translate(-94.589335,-695.35944)"
       id="XMLID_30_-6"
       cx="74.0923"
       cy="145.75101"
       r="66.943703"
       gradientUnits="userSpaceOnUse">
      <stop
         offset="0"
         style="stop-color:#A30C00"
         id="stop3451-6" />
      <stop
         offset="0"
         style="stop-color:#A30C00"
         id="stop3453-2" />
      <stop
         offset="0.99"
         style="stop-color:#800E08"
         id="stop3455-1" />
      <stop
         offset="1"
         style="stop-color:#800E08"
         id="stop3457-9" />
    </radialGradient>
    <linearGradient
       gradientTransform="translate(-94.589335,-695.35944)"
       id="XMLID_31_-6"
       gradientUnits="userSpaceOnUse"
       x1="26.669901"
       y1="197.33591"
       x2="9.9886999"
       y2="140.742">
      <stop
         offset="0"
         style="stop-color:#8B2114"
         id="stop3462-4" />
      <stop
         offset="0"
         style="stop-color:#8B2114"
         id="stop3464-8" />
      <stop
         offset="0.43"
         style="stop-color:#9E100A"
         id="stop3466-0" />
      <stop
         offset="0.99"
         style="stop-color:#B3100C"
         id="stop3468-8" />
      <stop
         offset="1"
         style="stop-color:#B3100C"
         id="stop3470-1" />
    </linearGradient>
    <linearGradient
       gradientTransform="translate(-94.589335,-695.35944)"
       id="XMLID_32_-0"
       gradientUnits="userSpaceOnUse"
       x1="154.6411"
       y1="9.7979002"
       x2="192.039"
       y2="26.305901">
      <stop
         offset="0"
         style="stop-color:#B31000"
         id="stop3475-2" />
      <stop
         offset="0"
         style="stop-color:#B31000"
         id="stop3477-2" />
      <stop
         offset="0.44"
         style="stop-color:#910F08"
         id="stop3479-9" />
      <stop
         offset="0.99"
         style="stop-color:#791C12"
         id="stop3481-7" />
      <stop
         offset="1"
         style="stop-color:#791C12"
         id="stop3483-5" />
    </linearGradient>
    <style
       id="style1881">.cls-1{fill:#10aa50;}.cls-2{fill:#b8c4c2;}.cls-3{fill:#12924f;}.cls-4{fill:#21313c;}</style>
  </defs>
  <sodipodi:namedview
     id="base"
     pagecolor="#ffffff"
     bordercolor="#666666"
     borderopacity="1.0"
     inkscape:pageopacity="0.0"
     inkscape:pageshadow="2"
     inkscape:zoom="5.42"
     inkscape:cx="-4.2499265"
     inkscape:cy="16.582972"
     inkscape:document-units="mm"
     inkscape:current-layer="g358"
     showgrid="false"
     showguides="true"
     inkscape:snap-to-guides="false"
     inkscape:snap-grids="false"
     inkscape:snap-midpoints="true"
     inkscape:snap-others="false"
     inkscape:snap-page="true"
     inkscape:window-width="1600"
     inkscape:window-height="836"
     inkscape:window-x="0"
     inkscape:window-y="27"
     inkscape:window-maximized="1">
    <inkscape:grid
       type="xygrid"
       id="grid1445"
       originx="-10.508991"
       originy="-201.39577" />
    <sodipodi:guide
       position="-20.43454,16.647208"
       orientation="62.896844,0"
       id="guide236"
       inkscape:locked="false" />
    <sodipodi:guide
       position="-20.43454,0.0057517532"
       orientation="0,239.89148"
       id="guide238"
       inkscape:locked="false" />
    <sodipodi:guide
       position="43.036747,0.0057517532"
       orientation="-62.896844,0"
       id="guide240"
       inkscape:locked="false" />
    <sodipodi:guide
       position="43.036747,16.647208"
       orientation="0,-239.89148"
       id="guide242"
       inkscape:locked="false" />
  </sodipodi:namedview>
  <metadata
     id="metadata5">
    <rdf:RDF>
      <cc:Work
         rdf:about="">
        <dc:format>image/svg+xml</dc:format>
        <dc:type
           rdf:resource="http://purl.org/dc/dcmitype/StillImage" />
        <dc:title />
      </cc:Work>
    </rdf:RDF>
  </metadata>
  <g
     inkscape:label="Capa 1"
     inkscape:groupmode="layer"
     id="layer1"
     transform="translate(-10.508991,-78.954101)">
    <g
       id="g358"
       transform="matrix(0.26458333,0,0,0.26458333,33.784635,128.57744)">
      <g
         id="g324"
         class="C B"
         style="fill:none;stroke:#ffffff;stroke-width:1.68200004"
         transform="matrix(0.77414831,0,0,0.77414831,1.5420128,-191.92839)">
        <g
           id="g316"
           class="D"
           style="stroke-linecap:round" />
        <g
           id="g322"
           class="E"
           style="stroke-linejoin:round" />
      </g>
      <g
         id="g330"
         class="C"
         style="fill:#ffffff;stroke:#ffffff"
         transform="matrix(0.77414831,0,0,0.77414831,1.5420128,-191.92839)" />
      <g
         id="g1704"
         style="fill:#ffffff">
        <path
           style="fill:#ffffff;stroke-width:0.81011164"
           inkscape:connector-curvature="0"
           d="m -83.106217,-131.08216 h -3.773501 v -3.45108 h 3.985751 c 1.458199,0 2.18892,0.58327 2.18892,1.75227 0,1.13254 -0.79796,1.69881 -2.393879,1.69881 m 2.717114,-3.48349 c -0.518471,-0.42126 -1.242711,-0.63188 -2.17434,-0.63188 l -5.414786,0.0275 v 8.26314 h 1.09122 l -0.0098,-3.51427 h 4.028686 c 1.01021,0 1.806549,-0.21062 2.385779,-0.63188 0.579229,-0.42127 0.87087,-1.00455 0.87087,-1.75227 0,-0.74774 -0.259236,-1.33102 -0.777708,-1.75228 z m 7.061743,5.91058 a 1.6931334,1.6931334 0 0 1 -0.51766,0.70236 c -0.488498,0.4326 -1.233801,0.64809 -2.23591,0.64809 -0.905704,0 -1.60078,-0.21063 -2.085227,-0.63188 -0.484446,-0.42126 -0.72748,-0.98348 -0.72748,-1.68908 0,-0.36698 0.06319,-0.69346 0.190377,-0.97781 a 1.944268,1.944268 0 0 1 0.550875,-0.721 c 0.50227,-0.41478 1.190865,-0.62217 2.071455,-0.62217 1.947509,0 2.921263,0.77366 2.921263,2.32016 0,0.3678 -0.05671,0.69022 -0.166072,0.96889 m 0.197668,-3.04601 c -0.664292,-0.55087 -1.649388,-0.82631 -2.952859,-0.82631 -1.231369,0 -2.184061,0.28111 -2.854832,0.84251 -0.605964,0.50875 -0.908946,1.19492 -0.908946,2.05769 0,0.86275 0.312703,1.54974 0.939729,2.07631 a 3.2323456,3.2323456 0 0 0 1.207877,0.6165 c 0.459333,0.12718 0.998868,0.19037 1.617793,0.19037 1.296179,0 2.284515,-0.27219 2.962579,-0.81659 0.605963,-0.4966 0.908945,-1.18601 0.908945,-2.06741 0,-0.88707 -0.306223,-1.57972 -0.919477,-2.07632 z m 8.251796,3.28662 c 0,1.11148 -1.096891,1.6664 -3.291483,1.6664 -0.670773,0 -1.23542,-0.0389 -1.694754,-0.11584 -0.459333,-0.0769 -0.831985,-0.20578 -1.117954,-0.384 -0.221161,-0.1361 -0.405055,-0.31351 -0.526572,-0.53225 a 2.2278071,2.2278071 0 0 1 -0.253565,-0.82469 l 1.02074,-0.008 c 0,0.43746 0.178225,0.75908 0.536294,0.96646 0.383183,0.2487 1.062867,0.37266 2.037431,0.37266 1.533542,0 2.300717,-0.34835 2.300717,-1.05315 0,-0.40748 -0.256806,-0.68859 -0.771227,-0.84251 -0.105314,-0.0299 -0.724239,-0.10775 -1.860825,-0.24304 l -2.124113,-0.34025 c -0.605154,-0.21873 -0.907325,-0.61163 -0.907325,-1.17952 0,-0.55573 0.270576,-0.9697 0.811731,-1.24109 0.267337,-0.11341 0.601103,-0.19928 1.002109,-0.26166 0.401005,-0.0624 0.865199,-0.0931 1.393391,-0.0931 2.111961,0 3.159436,0.60111 3.159436,1.80412 h -0.972134 c 0,-0.84495 -0.742062,-1.26782 -2.227808,-1.26782 -0.755023,0 -1.318861,0.0859 -1.689892,0.2568 -0.371031,0.17094 -0.556547,0.43423 -0.556547,0.78905 0,0.32404 0.243034,0.57032 0.751785,0.71776 0.293259,0.0769 0.967273,0.16608 2.022037,0.26572 0.944591,0.0769 1.591869,0.18632 1.944269,0.32809 0.670772,0.23656 1.006158,0.63837 1.006158,1.20545 z m 4.008433,1.50518 -0.415588,0.0526 -0.259235,0.0178 c -0.664292,0 -1.143878,-0.0875 -1.437948,-0.26249 -0.294071,-0.17497 -0.440701,-0.4812 -0.440701,-0.91947 v -3.76702 h -1.211117 v -0.55411 h 1.201395 l 0.0098,-1.77982 h 0.931627 v 1.77982 h 1.620224 v 0.56303 l -1.620224,-0.008 v 3.66494 c 0,0.273 0.0794,0.46177 0.239794,0.56546 0.160403,0.1037 0.445561,0.15554 0.854668,0.15554 0.05833,0.005 0.123946,0.004 0.194427,-0.005 0.07048,-0.009 0.178225,-0.0324 0.322424,-0.0664 l 0.0098,0.56546 z m 6.437957,-1.24918 a 2.8515931,2.8515931 0 0 1 -0.869249,0.43421 c -0.325666,0.10043 -0.699937,0.15068 -1.122816,0.15068 -1.946698,0 -2.919641,-0.7291 -2.919641,-2.18729 0,-0.67888 0.248703,-1.21112 0.746921,-1.5943 0.498221,-0.38318 1.198966,-0.56708 2.103862,-0.56708 0.911374,0 1.60402,0.19443 2.073884,0.58003 0.469865,0.38562 0.708039,0.9049 0.708039,1.55542 0,0.70885 -0.240604,1.25568 -0.722619,1.63885 m 1.652627,-4.18016 h -0.927578 l -0.0098,0.93163 c -0.409917,-0.37833 -0.703178,-0.61731 -0.878972,-0.71777 -0.520903,-0.25924 -1.194915,-0.38885 -2.022039,-0.38885 -1.211926,0 -2.136265,0.24302 -2.774632,0.7534 -0.605964,0.46176 -0.908946,1.12849 -0.908946,2.00259 0,0.43099 0.07695,0.81659 0.230072,1.15603 a 2.3169194,2.3169194 0 0 0 0.669962,0.86358 c 0.64809,0.48446 1.542453,0.72668 2.710633,0.72668 1.401494,0 2.397931,-0.34835 2.984453,-1.05316 v 0.97215 c 0,0.61567 -0.213871,1.0904 -0.64809,1.42741 -0.434221,0.33702 -1.128486,0.50551 -2.106291,0.50551 -0.918666,0 -1.573236,-0.11504 -1.96371,-0.34429 -0.293261,-0.17662 -0.486067,-0.48284 -0.605963,-0.91786 h -0.957552 c 0.105314,0.60758 0.388853,1.04828 0.850616,1.32048 0.534674,0.3127 1.436329,0.46986 2.707394,0.46986 2.430336,0 3.645502,-0.81983 3.645502,-2.45949 v -5.26573 z m 5.036463,0.54682 a 5.3791415,5.3791415 0 0 0 -0.780947,-0.0616 c -1.529491,0 -2.294236,0.76152 -2.294236,2.28453 v 2.64744 h -0.920287 l -0.0098,-5.41721 0.931629,0.008 v 0.96646 h 0.04861 a 1.7255378,1.7255378 0 0 1 0.742063,-0.86601 c 0.37103,-0.19038 0.923527,-0.28597 1.660729,-0.28597 h 0.623786 v 0.72505 z m 0.865201,1.80978 c 0.117465,-0.61568 0.380751,-1.09202 0.790668,-1.42984 0.267337,-0.19442 0.569509,-0.34187 0.907326,-0.4399 0.337815,-0.098 0.719379,-0.14581 1.134155,-0.14581 0.826314,0 1.501947,0.20577 2.02528,0.61729 0.523332,0.41155 0.785808,0.87736 0.785808,1.39908 h -5.654579 m 5.745312,-1.67126 c -0.325665,-0.29651 -0.729101,-0.51604 -1.211927,-0.65781 -0.482827,-0.14177 -1.053145,-0.21387 -1.690703,-0.21387 -1.215168,0 -2.141126,0.25437 -2.806228,0.76311 -0.665102,0.50876 -0.996437,1.20059 -0.996437,2.07633 0,0.87573 0.319184,1.57 0.957552,2.08442 0.690215,0.56707 1.66478,0.85062 2.922073,0.85062 0.50227,0 0.965653,-0.0518 1.393392,-0.16203 0.427738,-0.11018 0.799581,-0.24871 1.117954,-0.43745 0.560597,-0.36456 0.915426,-0.81579 1.065297,-1.35127 h -1.006159 c -0.345108,0.92595 -1.204636,1.38933 -2.578585,1.38933 -0.970513,0 -1.717437,-0.22683 -2.235908,-0.68049 -0.449612,-0.38886 -0.674013,-0.89112 -0.674013,-1.50923 h 6.642915 c 0,-0.91868 -0.2965,-1.63968 -0.889502,-2.16139 z"
           id="path304" />
        <path
           style="fill:#ffffff;stroke-width:0.81011164"
           inkscape:connector-curvature="0"
           d="m -30.401972,-129.13546 c 0,1.60807 -1.429038,2.41251 -4.288733,2.41251 -1.713385,0 -2.963387,-0.27706 -3.750816,-0.83118 -0.644849,-0.45529 -0.967273,-1.15037 -0.967273,-2.08361 h 1.150358 c 0,1.50114 1.188434,2.25212 3.566921,2.25212 1.139828,0 1.964522,-0.16203 2.473272,-0.46177 0.429359,-0.27139 0.644849,-0.69669 0.644849,-1.27593 0,-0.57274 -0.293261,-0.97456 -0.879782,-1.20464 -0.324044,-0.12394 -1.143877,-0.28029 -2.433576,-0.46986 -1.622653,-0.2244 -2.673368,-0.4488 -3.157004,-0.67239 -0.696696,-0.33053 -1.053145,-0.89113 -1.053145,-1.68341 0,-0.7291 0.296501,-1.29619 0.889503,-1.64778 0.638367,-0.39533 1.733638,-0.5938 3.284192,-0.5938 2.802987,0 4.202859,0.84414 4.202859,2.53321 h -1.16089 c 0,-1.26538 -1.040184,-1.89727 -3.120551,-1.89727 -1.043423,0 -1.806548,0.12719 -2.289375,0.38075 -0.456902,0.27219 -0.684544,0.67077 -0.684544,1.19735 0,0.55087 0.293261,0.93729 0.879782,1.16169 0.312702,0.12961 1.231369,0.31028 2.756,0.54116 1.433897,0.19443 2.40117,0.42288 2.90344,0.68293 0.684544,0.31917 1.026411,0.87248 1.026411,1.65909 z m 9.348687,0.82063 a 4.658142,4.658142 0 0 1 -1.45739,0.70399 c -0.541155,0.15635 -1.147929,0.24304 -1.819511,0.24304 -1.37719,0 -2.476511,-0.33457 -3.321458,-1.00455 -0.844947,-0.66996 -1.258103,-1.57161 -1.258103,-2.68714 0,-1.16251 0.418827,-2.06822 1.255673,-2.71792 0.836845,-0.64971 1.948318,-0.97375 3.331179,-0.97375 1.401493,0 2.504865,0.34025 3.306875,1.01831 a 3.1837388,3.1837388 0 0 1 0.939731,1.16009 c 0.210628,0.44312 0.302981,0.94782 0.302981,1.51489 0,1.15685 -0.423688,2.07146 -1.271875,2.74385 m 0.611634,0.54764 c 0.599483,-0.384 1.043424,-0.849 1.330204,-1.39501 0.286779,-0.54601 0.430978,-1.17709 0.430978,-1.89161 0,-1.2816 -0.469864,-2.30882 -1.407974,-3.08329 -0.502268,-0.42531 -1.108232,-0.74125 -1.817891,-0.94782 -0.709657,-0.20659 -1.523008,-0.31028 -2.433574,-0.31028 -1.772525,0 -3.163486,0.38885 -4.173696,1.16981 -1.010209,0.78094 -1.514908,1.83651 -1.514908,3.17158 a 3.7994237,3.7994237 0 0 0 1.52868,3.14484 c 1.018311,0.79716 2.412513,1.19573 4.177747,1.19573 a 11.203845,11.203845 0 0 0 1.806548,-0.12719 c 0.513611,-0.085 0.951072,-0.21467 1.309951,-0.39047 l 1.701234,1.06936 0.709658,-0.59139 -1.646146,-1.01264 z m 10.372667,0.84251 h -7.863751 v -8.26313 l 1.080689,-0.0178 v 7.59074 h 6.792783 z"
           id="path306" />
        <path
           inkscape:connector-curvature="0"
           id="path308"
           d="m -38.737609,-187.55278 -0.386288,0.002 c -1.950144,0.0161 -3.681493,0.31274 -4.96248,0.60906 -0.640651,0.1482 -1.170241,0.29641 -1.55947,0.41695 -0.04563,0.0141 -0.07304,0.0232 -0.108319,0.0347 -1.021351,-0.17199 -2.084716,-0.32317 -3.300834,-0.34337 h -0.0042 -0.0021 c -2.376019,-0.0383 -4.347017,0.62725 -6.023251,1.55129 -1.299718,-0.49348 -4.542087,-1.6174 -8.692527,-1.39188 -2.589213,0.14071 -5.496152,0.93795 -7.656297,3.22113 -2.163808,2.28705 -3.25187,5.77776 -3.022865,10.36236 v 0.002 c 0.06635,1.32003 0.419546,3.33263 1.005581,5.94762 0.587146,2.62 1.408749,5.68657 2.444457,8.5045 1.03056,2.80396 2.166467,5.39429 4.046832,7.22299 0.958971,0.93264 2.330738,1.76863 3.993702,1.69846 1.021655,-0.0431 1.862157,-0.51389 2.612047,-1.06895 0.268782,0.2852 0.520318,0.60569 0.844113,0.7828 0.514992,0.28168 1.025547,0.4721 1.541073,0.6009 0.875987,0.21862 2.413408,0.52115 4.228747,0.21051 0.375405,-0.0643 0.674566,-0.23453 1.007622,-0.37198 0.01465,0.38883 0.0293,0.77749 0.04499,1.16705 0.08393,2.0921 0.121368,4.10722 0.823676,5.96806 -0.0095,-0.0258 0.04144,0.14891 0.102238,0.35155 0.06069,0.20263 0.146473,0.46532 0.265695,0.7644 0.238456,0.59816 0.613192,1.34126 1.224269,2.04794 1.289986,1.49181 3.681326,2.3221 6.342095,1.75159 1.770184,-0.37929 4.185435,-1.10155 5.786167,-3.38053 1.548638,-2.20484 2.18798,-5.2913 2.325913,-10.03534 0.0042,-0.0369 0.01182,-0.0521 0.01632,-0.0838 1.792473,0.0556 3.69315,-0.21047 5.375337,-0.94017 h 0.08173 l 0.134899,-0.0634 c 1.516481,-0.70347 2.780745,-1.47786 3.687122,-2.84505 0.214984,-0.32429 0.523469,-0.85127 0.596804,-1.61669 0.04573,-0.4779 -0.05776,-0.96123 -0.251389,-1.43071 -0.193606,-0.46946 -0.480574,-0.92459 -0.9177,-1.25697 -0.690724,-0.52518 -1.356896,-0.73737 -1.937574,-0.746 -0.580679,-0.008 -1.032957,0.14709 -1.38982,0.22073 -0.590493,0.12181 -0.864413,0.10555 -1.275366,0.14511 2.060878,-3.65395 3.730267,-7.41933 4.619116,-10.86106 0.575864,-2.22982 0.905707,-4.2973 0.934045,-6.1377 0.0271,-1.76347 -0.147257,-3.47313 -1.248797,-4.96862 -2.74253,-4.60616 -7.514439,-5.9476 -11.322983,-6.00486 z m -0.374024,1.36734 c 3.566257,-0.0295 8.045212,1.12169 10.572882,5.40191 l 0.01842,0.0307 0.02041,0.0287 c 0.862604,1.15813 1.017061,2.48586 0.991265,4.1613 -0.02605,1.6925 -0.33295,3.66342 -0.889078,5.81681 -0.939727,3.63875 -2.745753,7.75636 -5.07285,11.66839 l -0.611119,1.03011 1.195659,0.002 c 0.645809,0.001 1.514534,-0.054 2.738772,-0.30658 0.457416,-0.0944 0.792345,-0.19663 1.095503,-0.19212 0.303169,0.004 0.61745,0.0766 1.132296,0.46804 0.165675,0.12597 0.359813,0.39367 0.482353,0.69083 0.12254,0.29715 0.170144,0.62419 0.155336,0.77871 -0.04782,0.4994 -0.184699,0.70668 -0.376075,0.99535 -0.715127,1.07871 -1.678734,1.68615 -3.102573,2.34839 l -0.02448,0.0105 c -1.530545,0.70674 -3.427738,0.97052 -5.177097,0.89112 l -0.02857,-0.002 -0.921771,-0.0797 -0.120593,0.59476 c -0.04396,0.21608 -0.09356,0.40433 -0.13694,0.75418 l -0.0042,0.0326 -0.0021,0.0326 c -0.130168,4.68102 -0.770861,7.48501 -2.082686,9.35269 -1.308875,1.86347 -3.283129,2.47427 -4.956359,2.83279 -2.225465,0.47717 -4.127585,-0.27368 -5.023802,-1.31011 -0.482018,-0.55743 -0.790147,-1.16228 -0.989235,-1.66165 -0.09951,-0.2497 -0.171021,-0.47243 -0.22482,-0.652 -0.05379,-0.17958 -0.07524,-0.28335 -0.134898,-0.44148 -0.589803,-1.56275 -0.649253,-3.43396 -0.733744,-5.53885 -0.02815,-0.70067 -0.05462,-1.39843 -0.07974,-2.10109 l -0.03683,-1.00762 -0.921781,0.40877 c -0.615881,0.27302 -1.190604,0.54164 -1.608516,0.61316 -1.543585,0.26414 -2.870804,0.009 -3.668727,-0.19008 -0.416949,-0.10413 -0.80735,-0.24949 -1.218136,-0.47417 -0.208559,-0.11408 -0.563287,-0.44069 -0.901343,-0.86864 l -0.439428,-0.55593 -0.537533,0.45986 c -0.736558,0.62738 -1.479029,1.05111 -2.289121,1.08529 -1.172741,0.0495 -2.197902,-0.54762 -2.984031,-1.31215 -1.609835,-1.5656 -2.709209,-3.96646 -3.719824,-6.71612 -1.005476,-2.73569 -1.813852,-5.75606 -2.391318,-8.33281 -0.576931,-2.57441 -0.916307,-4.56242 -0.974919,-5.70236 l -0.0021,-0.0123 c -4.3e-5,-7.9e-4 4.1e-5,-0.003 0,-0.004 v -0.002 c -0.216606,-4.33649 0.807758,-7.40651 2.652932,-9.35677 1.848845,-1.95415 4.371514,-2.66738 6.738596,-2.796 4.032045,-0.2191 7.299058,0.95897 8.406396,1.38777 l 0.306569,0.11855 0.284103,-0.16555 c 1.566323,-0.9125 3.382405,-1.53265 5.626738,-1.49611 10e-4,4e-5 0.0021,-3e-5 0.0042,0 1.189056,0.0201 2.240963,0.16341 3.282437,0.34337 l 0.167601,0.0286 0.163508,-0.0531 c 0.08089,-0.0267 0.133047,-0.0444 0.220739,-0.0716 0.359008,-0.11119 0.85575,-0.25233 1.461355,-0.39243 1.211502,-0.28025 2.849738,-0.55724 4.668175,-0.57227 z"
           style="color:#000000;font-style:normal;font-variant:normal;font-weight:normal;font-stretch:normal;font-size:medium;line-height:normal;font-family:sans-serif;font-variant-ligatures:normal;font-variant-position:normal;font-variant-caps:normal;font-variant-numeric:normal;font-variant-alternates:normal;font-feature-settings:normal;text-indent:0;text-align:start;text-decoration:none;text-decoration-line:none;text-decoration-style:solid;text-decoration-color:#000000;letter-spacing:normal;word-spacing:normal;text-transform:none;writing-mode:lr-tb;direction:ltr;text-orientation:mixed;dominant-baseline:auto;baseline-shift:baseline;text-anchor:start;white-space:normal;shape-padding:0;clip-rule:nonzero;display:inline;overflow:visible;visibility:visible;opacity:1;isolation:auto;mix-blend-mode:normal;color-interpolation:sRGB;color-interpolation-filters:linearRGB;solid-color:#000000;solid-opacity:1;vector-effect:none;fill:#ffffff;fill-opacity:1;fill-rule:nonzero;stroke:none;stroke-width:1.36451197;stroke-linecap:butt;stroke-linejoin:miter;stroke-miterlimit:4;stroke-dasharray:none;stroke-dashoffset:0;stroke-opacity:1;color-rendering:auto;image-rendering:auto;shape-rendering:auto;text-rendering:auto;enable-background:accumulate" />
        <path
           inkscape:connector-curvature="0"
           id="path312"
           d="m -39.983466,-185.37527 c -1.701182,0.0158 -3.179812,0.27046 -4.20245,0.50948 -0.51132,0.11951 -0.908418,0.2344 -1.164538,0.31645 -0.128054,0.0411 -0.216343,0.0732 -0.281642,0.098 -0.01632,0.006 -0.03097,0.0122 -0.05065,0.0205 -0.0095,0.004 -0.0203,0.008 -0.03956,0.0174 -0.0095,0.005 -0.02167,0.011 -0.04113,0.0222 -0.01946,0.0112 -0.107345,0.0758 -0.107585,0.076 -2.52e-4,2.1e-4 -0.101298,0.92235 -0.101298,0.92245 7.4e-5,9e-5 0.572369,0.27374 0.572767,0.27373 4.08e-4,-2e-5 0.07995,-0.007 0.09805,-0.0111 0.01821,-0.003 0.03024,-0.005 0.03956,-0.008 0.03725,-0.009 0.0495,-0.0122 0.06645,-0.0174 a 0.68137206,0.68137206 0 0 0 0.101297,-0.0412 c 0.03663,-0.0132 0.07598,-0.0286 0.159814,-0.0553 0.220593,-0.0707 0.585,-0.17729 1.058522,-0.28796 0.947052,-0.22136 2.332925,-0.45846 3.904994,-0.47309 3.144138,-0.0293 6.977074,0.79972 9.78621,4.38916 0.345571,0.44169 0.618434,1.50069 0.596511,2.96038 -0.02187,1.45968 -0.298176,3.3037 -0.822775,5.33692 -1.049198,4.06647 -3.084125,8.89741 -5.941345,13.1311 a 0.6815256,0.6815256 0 1 0 1.129722,0.76264 c 2.957764,-4.38267 5.041111,-9.32852 6.131224,-13.55355 0.545046,-2.11251 0.842846,-4.04358 0.867072,-5.65655 0.02417,-1.61294 -0.186144,-2.92451 -0.887645,-3.82112 -3.12007,-3.9867 -7.469253,-4.94294 -10.871636,-4.91127 z m -23.711591,0.65189 c -2.263682,0.13025 -4.588634,0.8097 -6.283106,2.60438 -1.694484,1.79467 -2.679649,4.63855 -2.468306,8.85901 0.0497,0.9903 0.38789,3.05019 0.960416,5.60432 0.572536,2.55415 1.378025,5.55305 2.36863,8.24669 0.990606,2.69365 2.130039,5.07725 3.556902,6.46349 0.713421,0.69312 1.555137,1.15935 2.484128,1.12024 0.928991,-0.0391 1.812199,-0.58325 2.607547,-1.53795 2.089228,-2.5119 3.979356,-4.4841 3.979356,-4.4841 a 0.68151635,0.68151635 0 1 0 -0.98416,-0.94302 c 0,0 -1.919293,2.00238 -4.042645,4.5553 -0.647055,0.7767 -1.176886,1.0305 -1.617056,1.04902 -0.440171,0.0185 -0.922785,-0.19961 -1.476245,-0.73732 -1.106909,-1.07541 -2.267846,-3.34532 -3.227782,-5.95558 -0.959944,-2.61026 -1.755407,-5.56444 -2.318003,-8.07423 -0.562585,-2.50977 -0.892616,-4.62345 -0.930361,-5.3749 -0.199392,-3.9819 0.712699,-6.38857 2.098069,-7.85587 1.385361,-1.46728 3.322015,-2.06091 5.370148,-2.17875 4.096266,-0.23569 8.430223,1.50472 8.430223,1.50472 a 0.68137206,0.68137206 0 1 0 0.514239,-1.26105 c 0,0 -4.494609,-1.86491 -9.021994,-1.6044 z m 13.439626,28.68143 a 0.68137206,0.68137206 0 0 0 -0.689854,0.67245 c -0.07618,2.72092 -0.06708,5.44644 0.02846,7.67234 0.04772,1.11294 0.11781,2.09962 0.210432,2.90658 0.09261,0.80697 0.190894,1.41167 0.376577,1.87971 0.270812,0.68261 0.722347,1.78485 1.712001,2.61705 0.989654,0.83218 2.525924,1.31426 4.629655,0.8639 1.700626,-0.36448 2.961333,-0.92304 3.855948,-1.85281 0.894604,-0.92977 1.360957,-2.16927 1.629717,-3.73094 0.390401,-2.25236 1.111431,-8.25892 1.211995,-9.60742 a 0.68145991,0.68145991 0 1 0 -1.359147,-0.10129 c -0.08581,1.14987 -0.826742,7.35383 -1.194602,9.47608 a 0.68137206,0.68137206 0 0 0 0,0.001 c -0.24485,1.42278 -0.629182,2.35079 -1.270544,3.01735 -0.641362,0.66656 -1.602102,1.13133 -3.159751,1.46516 -1.797757,0.38486 -2.779667,0.002 -3.465127,-0.57435 -0.685449,-0.57639 -1.066139,-1.42509 -1.324341,-2.07592 -0.07879,-0.19866 -0.202584,-0.77553 -0.289555,-1.53319 -0.08696,-0.75767 -0.154122,-1.71912 -0.20094,-2.81009 -0.09366,-2.18193 -0.103809,-4.88355 -0.02847,-7.5758 a 0.68137206,0.68137206 0 0 0 -0.672463,-0.71043 z"
           style="color:#000000;font-style:normal;font-variant:normal;font-weight:normal;font-stretch:normal;font-size:medium;line-height:normal;font-family:sans-serif;font-variant-ligatures:normal;font-variant-position:normal;font-variant-caps:normal;font-variant-numeric:normal;font-variant-alternates:normal;font-feature-settings:normal;text-indent:0;text-align:start;text-decoration:none;text-decoration-line:none;text-decoration-style:solid;text-decoration-color:#000000;letter-spacing:normal;word-spacing:normal;text-transform:none;writing-mode:lr-tb;direction:ltr;text-orientation:mixed;dominant-baseline:auto;baseline-shift:baseline;text-anchor:start;white-space:normal;shape-padding:0;clip-rule:nonzero;display:inline;overflow:visible;visibility:visible;opacity:1;isolation:auto;mix-blend-mode:normal;color-interpolation:sRGB;color-interpolation-filters:linearRGB;solid-color:#000000;solid-opacity:1;vector-effect:none;fill:#ffffff;fill-opacity:1;fill-rule:nonzero;stroke:none;stroke-width:1.36260784;stroke-linecap:butt;stroke-linejoin:round;stroke-miterlimit:4;stroke-dasharray:none;stroke-dashoffset:0;stroke-opacity:1;color-rendering:auto;image-rendering:auto;shape-rendering:auto;text-rendering:auto;enable-background:accumulate" />
        <path
           inkscape:connector-curvature="0"
           id="path314"
           d="m -49.130449,-184.8563 c -2.803579,-0.0459 -4.964291,0.81099 -6.547347,2.12971 -1.583057,1.31874 -2.589872,3.06947 -3.238863,4.79264 -1.297982,3.44634 -1.194603,6.87012 -1.194603,6.87012 a 0.68140228,0.68140228 0 1 0 1.362318,-0.0364 c 0,0 -0.07639,-3.20899 1.107579,-6.35272 0.592001,-1.57187 1.491032,-3.10631 2.835392,-4.22619 1.344349,-1.11989 3.132491,-1.85607 5.65337,-1.81484 5.09675,0.0834 8.394488,2.66597 10.431779,5.27047 1.018641,1.30226 1.7095,2.60946 2.112302,3.57747 0.137912,0.33144 0.197215,0.547 0.268981,0.78005 -2.34833,-0.22096 -4.054262,0.0969 -4.955605,1.12814 -1.031387,1.18001 -0.972387,2.84996 -0.569617,4.46511 0.40278,1.61515 1.179334,3.27383 1.892378,4.64232 0.356518,0.68423 0.698311,1.29568 0.968338,1.78003 0.270016,0.48435 0.478104,0.8727 0.522139,0.97941 h -0.001 c 0.411822,0.99845 0.937027,1.70674 1.349655,2.22781 0.287001,0.36242 0.368049,0.50673 0.474673,0.67878 -0.162191,0.0453 -0.275407,0.0643 -0.501567,0.16613 -0.386571,0.17413 -0.831534,0.4959 -1.12023,1.0253 -0.288707,0.52942 -0.420916,1.2246 -0.368666,2.1392 0.02062,0.35889 0.221241,0.68724 0.45885,0.89082 0.237618,0.20357 0.506808,0.3231 0.795871,0.41297 0.578135,0.1797 1.259775,0.23587 1.996793,0.22783 1.474058,-0.0161 3.131811,-0.297 4.291065,-0.83543 1.306268,-0.60679 2.327996,-1.34298 2.843302,-2.12021 0.12883,-0.19431 0.238675,-0.4002 0.265821,-0.68194 0.0271,-0.28175 -0.115968,-0.66916 -0.371827,-0.86391 -0.511727,-0.38952 -1.004272,-0.29083 -1.677185,-0.1519 -2.674217,0.55233 -4.016244,0.34258 -4.602772,0.0997 -0.293258,-0.12145 -0.406307,-0.24043 -0.454098,-0.30222 -0.04782,-0.0618 -0.0158,0.008 -0.0158,0.008 a 0.68137206,0.68137206 0 0 0 -0.001,-0.009 c -9.4e-5,-4.5e-4 9.4e-5,-0.001 0,-0.001 l -0.0021,-0.001 a 0.68137206,0.68137206 0 0 0 -0.243552,-0.3955 c -0.194505,-0.39836 -0.40909,-0.76677 -0.697777,-1.13131 -0.389584,-0.49197 -0.814194,-1.06784 -1.158206,-1.90187 -0.121023,-0.29329 -0.320968,-0.63766 -0.591759,-1.1234 -0.270792,-0.48573 -0.604151,-1.08272 -0.949355,-1.74522 -0.690389,-1.32502 -1.423263,-2.9174 -1.778441,-4.3417 -0.355188,-1.42427 -0.302803,-2.58105 0.272141,-3.23885 0.574943,-0.65781 1.89624,-1.10342 4.635996,-0.66455 l 0.245247,-0.005 c 0.189284,-0.0389 0.354383,-0.17164 0.433536,-0.28165 0.07912,-0.11 0.103914,-0.19644 0.120249,-0.26422 0.03264,-0.13559 0.02638,-0.21535 0.02218,-0.29431 -0.0084,-0.15791 -0.03642,-0.30207 -0.07911,-0.47783 -0.08539,-0.35153 -0.235223,-0.80433 -0.45885,-1.34176 -0.447423,-1.07489 -1.189517,-2.47783 -2.296007,-3.89238 -2.212971,-2.82911 -5.93179,-5.70339 -11.483958,-5.79421 z m 13.346272,28.01848 c 0.183736,0.15457 0.316124,0.31878 0.612333,0.44145 0.947984,0.3926 2.52743,0.52324 5.196111,0 -0.40661,0.3825 -0.855937,0.82836 -1.705669,1.22308 v -0.001 c -0.846583,0.39321 -2.438629,0.69632 -3.732529,0.71043 -0.64694,0.007 -1.229187,-0.0595 -1.5775,-0.16771 -0.160955,-0.05 -0.250574,-0.10523 -0.289554,-0.1345 -0.02909,-0.69126 0.07001,-1.12301 0.1962,-1.3544 0.13134,-0.24085 0.278545,-0.34093 0.484174,-0.43354 0.205618,-0.0926 0.451096,-0.13682 0.749983,-0.24208 0.01894,-0.006 0.04636,-0.0338 0.06645,-0.0412 z"
           style="color:#000000;font-style:normal;font-variant:normal;font-weight:normal;font-stretch:normal;font-size:medium;line-height:normal;font-family:sans-serif;font-variant-ligatures:normal;font-variant-position:normal;font-variant-caps:normal;font-variant-numeric:normal;font-variant-alternates:normal;font-feature-settings:normal;text-indent:0;text-align:start;text-decoration:none;text-decoration-line:none;text-decoration-style:solid;text-decoration-color:#000000;letter-spacing:normal;word-spacing:normal;text-transform:none;writing-mode:lr-tb;direction:ltr;text-orientation:mixed;dominant-baseline:auto;baseline-shift:baseline;text-anchor:start;white-space:normal;shape-padding:0;clip-rule:nonzero;display:inline;overflow:visible;visibility:visible;opacity:1;isolation:auto;mix-blend-mode:normal;color-interpolation:sRGB;color-interpolation-filters:linearRGB;solid-color:#000000;solid-opacity:1;vector-effect:none;fill:#ffffff;fill-opacity:1;fill-rule:nonzero;stroke:none;stroke-width:1.36260784;stroke-linecap:butt;stroke-linejoin:bevel;stroke-miterlimit:4;stroke-dasharray:none;stroke-dashoffset:0;stroke-opacity:1;color-rendering:auto;image-rendering:auto;shape-rendering:auto;text-rendering:auto;enable-background:accumulate" />
        <path
           inkscape:connector-curvature="0"
           id="path318"
           d="m -52.28862,-157.96438 c -0.486749,0.0426 -1.004116,0.318 -1.461992,0.83068 -0.777412,0.86864 -1.055173,1.34642 -1.367068,1.5949 -0.311897,0.24849 -0.820516,0.4518 -2.276857,0.75157 -0.802422,0.16547 -1.333854,0.34626 -1.735724,0.67404 -0.200941,0.16389 -0.376787,0.39187 -0.441448,0.67246 -0.06468,0.28058 0.0031,0.56712 0.113917,0.77214 0.221095,0.41002 0.551336,0.62032 0.892386,0.80694 0.341061,0.18662 0.708282,0.32303 1.055361,0.4098 0.744029,0.18569 1.9929,0.42066 3.389186,0.18196 1.396275,-0.23871 2.944663,-0.98667 4.13758,-2.65818 0.494586,-0.69242 0.472443,-1.54519 0.216763,-2.23571 -0.25567,-0.69053 -0.733367,-1.29428 -1.425607,-1.58226 a 0.68137206,0.68137206 0 0 0 -0.0021,0 c -0.226306,-0.0936 -0.608159,-0.26095 -1.094917,-0.21834 z m 0.118667,1.35756 c 0.107525,-0.009 0.240947,0.0306 0.454111,0.11868 0.219138,0.0912 0.532185,0.41863 0.672452,0.79745 0.140266,0.37882 0.120655,0.73391 -0.04908,0.97151 -0.987896,1.38423 -2.145014,1.91571 -3.257846,2.10597 -1.112843,0.19024 -2.177266,0.003 -2.829061,-0.1598 -0.228106,-0.0571 -0.513224,-0.16479 -0.732581,-0.28482 -0.07137,-0.0391 -0.06038,-0.0442 -0.112348,-0.0838 0.160213,-0.0849 0.354822,-0.19675 0.903468,-0.31012 1.511102,-0.31104 2.268548,-0.55792 2.851214,-1.02212 0.582667,-0.46422 0.82806,-0.9619 1.534784,-1.75155 0.300375,-0.33632 0.456997,-0.37189 0.564866,-0.38133 z"
           style="color:#000000;font-style:normal;font-variant:normal;font-weight:normal;font-stretch:normal;font-size:medium;line-height:normal;font-family:sans-serif;font-variant-ligatures:normal;font-variant-position:normal;font-variant-caps:normal;font-variant-numeric:normal;font-variant-alternates:normal;font-feature-settings:normal;text-indent:0;text-align:start;text-decoration:none;text-decoration-line:none;text-decoration-style:solid;text-decoration-color:#000000;letter-spacing:normal;word-spacing:normal;text-transform:none;writing-mode:lr-tb;direction:ltr;text-orientation:mixed;dominant-baseline:auto;baseline-shift:baseline;text-anchor:start;white-space:normal;shape-padding:0;clip-rule:nonzero;display:inline;overflow:visible;visibility:visible;opacity:1;isolation:auto;mix-blend-mode:normal;color-interpolation:sRGB;color-interpolation-filters:linearRGB;solid-color:#000000;solid-opacity:1;vector-effect:none;fill:#ffffff;fill-opacity:1;fill-rule:nonzero;stroke:none;stroke-width:1.36260784;stroke-linecap:butt;stroke-linejoin:miter;stroke-miterlimit:4;stroke-dasharray:none;stroke-dashoffset:0;stroke-opacity:1;color-rendering:auto;image-rendering:auto;shape-rendering:auto;text-rendering:auto;enable-background:accumulate" />
        <path
           inkscape:connector-curvature="0"
           id="path320"
           d="m -54.383519,-173.81219 c -0.877579,-0.004 -1.758547,0.1971 -2.558489,0.47309 -0.799953,0.27598 -1.516105,0.62879 -2.056934,0.96359 -0.270415,0.16741 -0.495989,0.32679 -0.680364,0.49208 -0.09219,0.0827 -0.174077,0.166 -0.253158,0.27374 -0.07911,0.10771 -0.186154,0.23843 -0.188288,0.52529 -0.0031,0.44816 0.07848,1.19984 0.104436,2.30693 0.02595,1.10708 -0.0021,2.50629 -0.215183,4.0015 a 0.68232415,0.68232415 0 0 0 0,0.001 c -0.584362,4.17518 2.494007,7.69474 6.253041,7.77042 0.0052,0.13304 -0.05683,0.26485 -0.03642,0.39873 a 0.68232415,0.68232415 0 1 0 1.348075,-0.20727 c -0.104436,-0.68277 0.282397,-1.78233 0.789551,-3.15026 0.688986,-1.85376 2.561451,-4.31073 1.132892,-10.91277 -0.195404,-0.90356 -0.599336,-1.61333 -1.155046,-2.09649 -0.7071,-0.61477 -1.606549,-0.83604 -2.484128,-0.84017 z m -0.0062,1.36547 c 0.658692,0.003 1.197134,0.15891 1.594914,0.50474 0.312597,0.2718 0.570275,0.67706 0.716758,1.3544 1.366316,6.31438 -0.253211,7.93229 -1.077513,10.15014 -0.271472,0.73223 -0.529518,1.42699 -0.704098,2.11231 -2.963028,0.006 -5.505338,-2.78842 -5.020484,-6.25939 v -0.001 c 0.227321,-1.59549 0.254948,-3.06847 0.227845,-4.22461 -0.0248,-1.05795 -0.08455,-1.77731 -0.09492,-2.07116 0.09449,-0.0826 0.254027,-0.20216 0.466761,-0.33386 0.444021,-0.27487 1.086879,-0.5936 1.783201,-0.83384 0.696312,-0.24023 1.44886,-0.40024 2.107551,-0.39714 z"
           style="color:#000000;font-style:normal;font-variant:normal;font-weight:normal;font-stretch:normal;font-size:medium;line-height:normal;font-family:sans-serif;font-variant-ligatures:normal;font-variant-position:normal;font-variant-caps:normal;font-variant-numeric:normal;font-variant-alternates:normal;font-feature-settings:normal;text-indent:0;text-align:start;text-decoration:none;text-decoration-line:none;text-decoration-style:solid;text-decoration-color:#000000;letter-spacing:normal;word-spacing:normal;text-transform:none;writing-mode:lr-tb;direction:ltr;text-orientation:mixed;dominant-baseline:auto;baseline-shift:baseline;text-anchor:start;white-space:normal;shape-padding:0;clip-rule:nonzero;display:inline;overflow:visible;visibility:visible;opacity:1;isolation:auto;mix-blend-mode:normal;color-interpolation:sRGB;color-interpolation-filters:linearRGB;solid-color:#000000;solid-opacity:1;vector-effect:none;fill:#ffffff;fill-opacity:1;fill-rule:nonzero;stroke:none;stroke-width:1.36451185;stroke-linecap:round;stroke-linejoin:miter;stroke-miterlimit:4;stroke-dasharray:none;stroke-dashoffset:0;stroke-opacity:1;color-rendering:auto;image-rendering:auto;shape-rendering:auto;text-rendering:auto;enable-background:accumulate" />
        <path
           inkscape:connector-curvature="0"
           id="path326"
           d="m -53.875612,-171.66349 c -0.309834,-0.0435 -0.597787,-0.0355 -0.833846,0.0206 -0.11803,0.028 -0.224852,0.0669 -0.318029,0.13132 -0.0923,0.0638 -0.178106,0.16679 -0.19779,0.29905 h -0.0021 c -8.4e-5,5.9e-4 8.3e-5,9.7e-4 0,0.001 -6.4e-5,4.9e-4 7.3e-5,0.001 0,0.001 -0.001,0.012 0.0084,0.0186 0.0084,0.0301 -0.0084,0.1236 0.02198,0.22618 0.07441,0.32753 0.05776,0.11166 0.139681,0.22309 0.242087,0.33069 0.204812,0.2152 0.494942,0.41436 0.849669,0.4636 0.354456,0.0492 0.674074,-0.0677 0.908208,-0.22627 0.117079,-0.0792 0.214199,-0.16921 0.289555,-0.26264 0.07534,-0.0935 0.133685,-0.18495 0.151893,-0.31013 0.01957,-0.13417 -0.03558,-0.25892 -0.107586,-0.34652 -0.07199,-0.0876 -0.163143,-0.15288 -0.268981,-0.21202 -0.211687,-0.11826 -0.486277,-0.205 -0.795871,-0.2484 z m -0.06331,0.45093 c 0.262346,0.0367 0.494094,0.11283 0.637647,0.19303 0.07179,0.0401 0.119851,0.0824 0.139231,0.10602 0.01936,0.0235 0.0062,0.0133 0.0095,-0.009 0.0021,-0.0138 -0.01204,0.0364 -0.05536,0.0902 -0.04332,0.0537 -0.110653,0.11776 -0.191449,0.17246 -0.161604,0.10942 -0.372695,0.18366 -0.59018,0.15347 -0.217213,-0.0302 -0.433421,-0.16946 -0.583849,-0.32751 -0.07524,-0.079 -0.134051,-0.16115 -0.167715,-0.22626 -0.03369,-0.0651 -0.03024,-0.11821 -0.03485,-0.0871 -0.0031,0.0227 -0.01748,0.0271 0.0084,0.009 0.02543,-0.0176 0.08298,-0.0443 0.162965,-0.0633 0.160087,-0.0379 0.404025,-0.0478 0.666131,-0.0111 z"
           style="color:#000000;font-style:normal;font-variant:normal;font-weight:normal;font-stretch:normal;font-size:medium;line-height:normal;font-family:sans-serif;font-variant-ligatures:normal;font-variant-position:normal;font-variant-caps:normal;font-variant-numeric:normal;font-variant-alternates:normal;font-feature-settings:normal;text-indent:0;text-align:start;text-decoration:none;text-decoration-line:none;text-decoration-style:solid;text-decoration-color:#000000;letter-spacing:normal;word-spacing:normal;text-transform:none;writing-mode:lr-tb;direction:ltr;text-orientation:mixed;dominant-baseline:auto;baseline-shift:baseline;text-anchor:start;white-space:normal;shape-padding:0;clip-rule:nonzero;display:inline;overflow:visible;visibility:visible;opacity:1;isolation:auto;mix-blend-mode:normal;color-interpolation:sRGB;color-interpolation-filters:linearRGB;solid-color:#000000;solid-opacity:1;vector-effect:none;fill:#ffffff;fill-opacity:1;fill-rule:nonzero;stroke:none;stroke-width:0.4544726;stroke-linecap:butt;stroke-linejoin:miter;stroke-miterlimit:4;stroke-dasharray:none;stroke-dashoffset:0;stroke-opacity:1;color-rendering:auto;image-rendering:auto;shape-rendering:auto;text-rendering:auto;enable-background:accumulate" />
        <path
           inkscape:connector-curvature="0"
           id="path328"
           d="m -38.697091,-172.1176 c -0.309991,0.0434 -0.585471,0.12858 -0.797461,0.24683 -0.105985,0.0592 -0.196839,0.126 -0.26898,0.21361 -0.0721,0.0875 -0.128715,0.21212 -0.109178,0.34649 0.0182,0.12506 0.0767,0.2161 0.151904,0.31013 0.07524,0.0941 0.172299,0.18426 0.289544,0.26424 0.2345,0.15996 0.555364,0.27913 0.911378,0.22468 0.352562,-0.0539 0.642106,-0.25133 0.846499,-0.46518 0.102239,-0.10693 0.184219,-0.21974 0.242087,-0.33069 l 0.147153,0.0728 -0.06331,-0.43038 v -0.001 c -0.01946,-0.13343 -0.106288,-0.23466 -0.19936,-0.29904 -0.09314,-0.0644 -0.198534,-0.10489 -0.316458,-0.13291 -0.23583,-0.0559 -0.523678,-0.0625 -0.833837,-0.0189 z m 0.06331,0.45094 c 0.262577,-0.0367 0.504842,-0.0269 0.664541,0.0111 0.07984,0.0189 0.139032,0.0456 0.164556,0.0633 0.01047,0.007 0.0021,-0.003 0.0031,-0.003 -0.0031,-0.0145 -0.0031,0.0188 -0.03317,0.0776 -0.03369,0.0646 -0.09251,0.14757 -0.167726,0.22626 -0.150418,0.15739 -0.36605,0.29714 -0.585429,0.3307 -0.215926,0.0331 -0.425771,-0.0403 -0.587009,-0.15031 -0.08058,-0.0551 -0.146336,-0.11961 -0.189869,-0.17406 -0.04353,-0.0544 -0.05892,-0.10543 -0.05693,-0.0918 0.0031,0.023 -0.01047,0.0331 0.0095,0.009 0.01946,-0.0235 0.06728,-0.0659 0.139231,-0.10601 0.143857,-0.0803 0.376462,-0.15623 0.639228,-0.19302 z"
           style="color:#000000;font-style:normal;font-variant:normal;font-weight:normal;font-stretch:normal;font-size:medium;line-height:normal;font-family:sans-serif;font-variant-ligatures:normal;font-variant-position:normal;font-variant-caps:normal;font-variant-numeric:normal;font-variant-alternates:normal;font-feature-settings:normal;text-indent:0;text-align:start;text-decoration:none;text-decoration-line:none;text-decoration-style:solid;text-decoration-color:#000000;letter-spacing:normal;word-spacing:normal;text-transform:none;writing-mode:lr-tb;direction:ltr;text-orientation:mixed;dominant-baseline:auto;baseline-shift:baseline;text-anchor:start;white-space:normal;shape-padding:0;clip-rule:nonzero;display:inline;overflow:visible;visibility:visible;opacity:1;isolation:auto;mix-blend-mode:normal;color-interpolation:sRGB;color-interpolation-filters:linearRGB;solid-color:#000000;solid-opacity:1;vector-effect:none;fill:#ffffff;fill-opacity:1;fill-rule:nonzero;stroke:none;stroke-width:0.45483726;stroke-linecap:butt;stroke-linejoin:miter;stroke-miterlimit:4;stroke-dasharray:none;stroke-dashoffset:0;stroke-opacity:1;color-rendering:auto;image-rendering:auto;shape-rendering:auto;text-rendering:auto;enable-background:accumulate" />
        <path
           inkscape:connector-curvature="0"
           id="path332"
           d="m -35.573714,-173.86711 a 0.68137206,0.68137206 0 0 0 -0.631546,0.72557 c 0.08654,1.60988 -0.374903,2.77749 -0.437387,4.74379 -0.04867,1.47697 0.283202,2.93527 0.353587,4.35956 0.07042,1.42426 -0.08329,2.78031 -1.023978,4.18582 a 0.6813724,0.6813724 0 1 0 1.132296,0.75827 c 1.134839,-1.69562 1.330756,-3.43598 1.252889,-5.01155 -0.07786,-1.57556 -0.392012,-3.01833 -0.351545,-4.24713 a 0.68137206,0.68137206 0 0 0 0,-0.002 c 0.05577,-1.75535 0.534707,-2.97169 0.433295,-4.85825 a 0.68137206,0.68137206 0 0 0 -0.727611,-0.65404 z"
           style="color:#000000;font-style:normal;font-variant:normal;font-weight:normal;font-stretch:normal;font-size:medium;line-height:normal;font-family:sans-serif;font-variant-ligatures:normal;font-variant-position:normal;font-variant-caps:normal;font-variant-numeric:normal;font-variant-alternates:normal;font-feature-settings:normal;text-indent:0;text-align:start;text-decoration:none;text-decoration-line:none;text-decoration-style:solid;text-decoration-color:#000000;letter-spacing:normal;word-spacing:normal;text-transform:none;writing-mode:lr-tb;direction:ltr;text-orientation:mixed;dominant-baseline:auto;baseline-shift:baseline;text-anchor:start;white-space:normal;shape-padding:0;clip-rule:nonzero;display:inline;overflow:visible;visibility:visible;opacity:1;isolation:auto;mix-blend-mode:normal;color-interpolation:sRGB;color-interpolation-filters:linearRGB;solid-color:#000000;solid-opacity:1;vector-effect:none;fill:#ffffff;fill-opacity:1;fill-rule:nonzero;stroke:none;stroke-width:1.36260784;stroke-linecap:round;stroke-linejoin:round;stroke-miterlimit:4;stroke-dasharray:none;stroke-dashoffset:0;stroke-opacity:1;color-rendering:auto;image-rendering:auto;shape-rendering:auto;text-rendering:auto;enable-background:accumulate" />
      </g>
      <g
         id="g1926"
         transform="matrix(0.21565079,0,0,0.21565079,151.11996,-188.33102)" />
    </g>
  </g>
  <style
     id="style302"><![CDATA[.B{stroke-width:1.682}.C{stroke:#fff}.D{stroke-linecap:round}.E{stroke-linejoin:round}]]></style>
</svg>
