<?xml version="1.0" encoding="UTF-8" standalone="no"?>
<!-- Created with Inkscape (http://www.inkscape.org/) -->

<svg
   xmlns:dc="http://purl.org/dc/elements/1.1/"
   xmlns:cc="http://creativecommons.org/ns#"
   xmlns:rdf="http://www.w3.org/1999/02/22-rdf-syntax-ns#"
   xmlns:svg="http://www.w3.org/2000/svg"
   xmlns="http://www.w3.org/2000/svg"
   xmlns:sodipodi="http://sodipodi.sourceforge.net/DTD/sodipodi-0.dtd"
   xmlns:inkscape="http://www.inkscape.org/namespaces/inkscape"
   width="24.372562mm"
   height="16.59617mm"
   viewBox="0 0 24.372562 16.596171"
   version="1.1"
   id="svg8"
   inkscape:version="0.92.4 (5da689c313, 2019-01-14)"
   sodipodi:docname="mysql.svg">
  <defs
     id="defs2">
    <linearGradient
       id="XMLID_17_-9"
       gradientUnits="userSpaceOnUse"
       x1="174.0737"
       y1="215.5488"
       x2="132.27631"
       y2="141.7533">
      <stop
         offset="0"
         style="stop-color:#FB7655"
         id="stop3272-4" />
      <stop
         offset="0"
         style="stop-color:#FB7655"
         id="stop3274-5" />
      <stop
         offset="0.41"
         style="stop-color:#E42B1E"
         id="stop3276-1" />
      <stop
         offset="0.99"
         style="stop-color:#990000"
         id="stop3278-0" />
      <stop
         offset="1"
         style="stop-color:#990000"
         id="stop3280-3" />
    </linearGradient>
    <linearGradient
       id="XMLID_18_-7"
       gradientUnits="userSpaceOnUse"
       x1="194.895"
       y1="153.5576"
       x2="141.0276"
       y2="117.4093">
      <stop
         offset="0"
         style="stop-color:#871101"
         id="stop3285-8" />
      <stop
         offset="0"
         style="stop-color:#871101"
         id="stop3287-8" />
      <stop
         offset="0.99"
         style="stop-color:#911209"
         id="stop3289-6" />
      <stop
         offset="1"
         style="stop-color:#911209"
         id="stop3291-0" />
    </linearGradient>
    <linearGradient
       id="XMLID_19_-4"
       gradientUnits="userSpaceOnUse"
       x1="151.79539"
       y1="217.7852"
       x2="97.929703"
       y2="181.638">
      <stop
         offset="0"
         style="stop-color:#871101"
         id="stop3296-6" />
      <stop
         offset="0"
         style="stop-color:#871101"
         id="stop3298-7" />
      <stop
         offset="0.99"
         style="stop-color:#911209"
         id="stop3300-6" />
      <stop
         offset="1"
         style="stop-color:#911209"
         id="stop3302-0" />
    </linearGradient>
    <linearGradient
       id="XMLID_20_-9"
       gradientUnits="userSpaceOnUse"
       x1="38.696301"
       y1="127.3906"
       x2="47.046902"
       y2="181.66141">
      <stop
         offset="0"
         style="stop-color:#FFFFFF"
         id="stop3307-7" />
      <stop
         offset="0"
         style="stop-color:#FFFFFF"
         id="stop3309-5" />
      <stop
         offset="0.23"
         style="stop-color:#E57252"
         id="stop3311-9" />
      <stop
         offset="0.46"
         style="stop-color:#DE3B20"
         id="stop3313-7" />
      <stop
         offset="0.99"
         style="stop-color:#A60003"
         id="stop3315-8" />
      <stop
         offset="1"
         style="stop-color:#A60003"
         id="stop3317-5" />
    </linearGradient>
    <linearGradient
       id="XMLID_21_-3"
       gradientUnits="userSpaceOnUse"
       x1="96.132797"
       y1="76.715302"
       x2="99.209602"
       y2="132.1021">
      <stop
         offset="0"
         style="stop-color:#FFFFFF"
         id="stop3322-3" />
      <stop
         offset="0"
         style="stop-color:#FFFFFF"
         id="stop3324-8" />
      <stop
         offset="0.23"
         style="stop-color:#E4714E"
         id="stop3326-3" />
      <stop
         offset="0.56"
         style="stop-color:#BE1A0D"
         id="stop3328-7" />
      <stop
         offset="0.99"
         style="stop-color:#A80D00"
         id="stop3330-9" />
      <stop
         offset="1"
         style="stop-color:#A80D00"
         id="stop3332-3" />
    </linearGradient>
    <linearGradient
       id="XMLID_22_-7"
       gradientUnits="userSpaceOnUse"
       x1="147.103"
       y1="25.521"
       x2="156.3141"
       y2="65.216202">
      <stop
         offset="0"
         style="stop-color:#FFFFFF"
         id="stop3337-8" />
      <stop
         offset="0"
         style="stop-color:#FFFFFF"
         id="stop3339-7" />
      <stop
         offset="0.18"
         style="stop-color:#E46342"
         id="stop3341-4" />
      <stop
         offset="0.4"
         style="stop-color:#C82410"
         id="stop3343-1" />
      <stop
         offset="0.99"
         style="stop-color:#A80D00"
         id="stop3345-9" />
      <stop
         offset="1"
         style="stop-color:#A80D00"
         id="stop3347-0" />
    </linearGradient>
    <linearGradient
       id="XMLID_23_-9"
       gradientUnits="userSpaceOnUse"
       x1="118.9761"
       y1="11.5415"
       x2="158.66859"
       y2="-8.3048">
      <stop
         offset="0"
         style="stop-color:#FFFFFF"
         id="stop3352-8" />
      <stop
         offset="0"
         style="stop-color:#FFFFFF"
         id="stop3354-8" />
      <stop
         offset="0.54"
         style="stop-color:#C81F11"
         id="stop3356-5" />
      <stop
         offset="0.99"
         style="stop-color:#BF0905"
         id="stop3358-8" />
      <stop
         offset="1"
         style="stop-color:#BF0905"
         id="stop3360-4" />
    </linearGradient>
    <linearGradient
       id="XMLID_24_-3"
       gradientUnits="userSpaceOnUse"
       x1="3.9033"
       y1="113.5547"
       x2="7.1701999"
       y2="146.2628">
      <stop
         offset="0"
         style="stop-color:#FFFFFF"
         id="stop3365-7" />
      <stop
         offset="0"
         style="stop-color:#FFFFFF"
         id="stop3367-1" />
      <stop
         offset="0.31"
         style="stop-color:#DE4024"
         id="stop3369-3" />
      <stop
         offset="0.99"
         style="stop-color:#BF190B"
         id="stop3371-8" />
      <stop
         offset="1"
         style="stop-color:#BF190B"
         id="stop3373-0" />
    </linearGradient>
    <linearGradient
       gradientTransform="translate(-94.589335,-695.35944)"
       id="XMLID_25_-9"
       gradientUnits="userSpaceOnUse"
       x1="-18.5557"
       y1="155.10451"
       x2="135.0152"
       y2="-2.8092999">
      <stop
         offset="0"
         style="stop-color:#BD0012"
         id="stop3380-7" />
      <stop
         offset="0"
         style="stop-color:#BD0012"
         id="stop3382-9" />
      <stop
         offset="0.07"
         style="stop-color:#FFFFFF"
         id="stop3384-9" />
      <stop
         offset="0.17"
         style="stop-color:#FFFFFF"
         id="stop3386-3" />
      <stop
         offset="0.27"
         style="stop-color:#C82F1C"
         id="stop3388-2" />
      <stop
         offset="0.33"
         style="stop-color:#820C01"
         id="stop3390-4" />
      <stop
         offset="0.46"
         style="stop-color:#A31601"
         id="stop3392-3" />
      <stop
         offset="0.72"
         style="stop-color:#B31301"
         id="stop3394-7" />
      <stop
         offset="0.99"
         style="stop-color:#E82609"
         id="stop3396-1" />
      <stop
         offset="1"
         style="stop-color:#E82609"
         id="stop3398-2" />
    </linearGradient>
    <linearGradient
       gradientTransform="translate(-94.589335,-695.35944)"
       id="XMLID_26_-2"
       gradientUnits="userSpaceOnUse"
       x1="99.074699"
       y1="171.0332"
       x2="52.817699"
       y2="159.61659">
      <stop
         offset="0"
         style="stop-color:#8C0C01"
         id="stop3403-0" />
      <stop
         offset="0"
         style="stop-color:#8C0C01"
         id="stop3405-2" />
      <stop
         offset="0.54"
         style="stop-color:#990C00"
         id="stop3407-1" />
      <stop
         offset="0.99"
         style="stop-color:#A80D0E"
         id="stop3409-7" />
      <stop
         offset="1"
         style="stop-color:#A80D0E"
         id="stop3411-5" />
    </linearGradient>
    <linearGradient
       gradientTransform="translate(-94.589335,-695.35944)"
       id="XMLID_27_-1"
       gradientUnits="userSpaceOnUse"
       x1="178.52589"
       y1="115.5146"
       x2="137.43269"
       y2="78.683998">
      <stop
         offset="0"
         style="stop-color:#7E110B"
         id="stop3416-7" />
      <stop
         offset="0"
         style="stop-color:#7E110B"
         id="stop3418-4" />
      <stop
         offset="0.99"
         style="stop-color:#9E0C00"
         id="stop3420-1" />
      <stop
         offset="1"
         style="stop-color:#9E0C00"
         id="stop3422-7" />
    </linearGradient>
    <linearGradient
       gradientTransform="translate(-94.589335,-695.35944)"
       id="XMLID_28_-1"
       gradientUnits="userSpaceOnUse"
       x1="193.6235"
       y1="47.937"
       x2="173.15421"
       y2="26.053801">
      <stop
         offset="0"
         style="stop-color:#79130D"
         id="stop3427-1" />
      <stop
         offset="0"
         style="stop-color:#79130D"
         id="stop3429-1" />
      <stop
         offset="0.99"
         style="stop-color:#9E120B"
         id="stop3431-7" />
      <stop
         offset="1"
         style="stop-color:#9E120B"
         id="stop3433-0" />
    </linearGradient>
    <radialGradient
       gradientTransform="translate(-94.589335,-695.35944)"
       id="XMLID_29_-4"
       cx="143.8315"
       cy="79.388199"
       r="50.357601"
       gradientUnits="userSpaceOnUse">
      <stop
         offset="0"
         style="stop-color:#A80D00"
         id="stop3440-0" />
      <stop
         offset="0"
         style="stop-color:#A80D00"
         id="stop3442-8" />
      <stop
         offset="0.99"
         style="stop-color:#7E0E08"
         id="stop3444-5" />
      <stop
         offset="1"
         style="stop-color:#7E0E08"
         id="stop3446-1" />
    </radialGradient>
    <radialGradient
       gradientTransform="translate(-94.589335,-695.35944)"
       id="XMLID_30_-6"
       cx="74.0923"
       cy="145.75101"
       r="66.943703"
       gradientUnits="userSpaceOnUse">
      <stop
         offset="0"
         style="stop-color:#A30C00"
         id="stop3451-6" />
      <stop
         offset="0"
         style="stop-color:#A30C00"
         id="stop3453-2" />
      <stop
         offset="0.99"
         style="stop-color:#800E08"
         id="stop3455-1" />
      <stop
         offset="1"
         style="stop-color:#800E08"
         id="stop3457-9" />
    </radialGradient>
    <linearGradient
       gradientTransform="translate(-94.589335,-695.35944)"
       id="XMLID_31_-6"
       gradientUnits="userSpaceOnUse"
       x1="26.669901"
       y1="197.33591"
       x2="9.9886999"
       y2="140.742">
      <stop
         offset="0"
         style="stop-color:#8B2114"
         id="stop3462-4" />
      <stop
         offset="0"
         style="stop-color:#8B2114"
         id="stop3464-8" />
      <stop
         offset="0.43"
         style="stop-color:#9E100A"
         id="stop3466-0" />
      <stop
         offset="0.99"
         style="stop-color:#B3100C"
         id="stop3468-8" />
      <stop
         offset="1"
         style="stop-color:#B3100C"
         id="stop3470-1" />
    </linearGradient>
    <linearGradient
       gradientTransform="translate(-94.589335,-695.35944)"
       id="XMLID_32_-0"
       gradientUnits="userSpaceOnUse"
       x1="154.6411"
       y1="9.7979002"
       x2="192.039"
       y2="26.305901">
      <stop
         offset="0"
         style="stop-color:#B31000"
         id="stop3475-2" />
      <stop
         offset="0"
         style="stop-color:#B31000"
         id="stop3477-2" />
      <stop
         offset="0.44"
         style="stop-color:#910F08"
         id="stop3479-9" />
      <stop
         offset="0.99"
         style="stop-color:#791C12"
         id="stop3481-7" />
      <stop
         offset="1"
         style="stop-color:#791C12"
         id="stop3483-5" />
    </linearGradient>
    <style
       id="style1881">.cls-1{fill:#10aa50;}.cls-2{fill:#b8c4c2;}.cls-3{fill:#12924f;}.cls-4{fill:#21313c;}</style>
  </defs>
  <sodipodi:namedview
     id="base"
     pagecolor="#ffffff"
     bordercolor="#666666"
     borderopacity="1.0"
     inkscape:pageopacity="0.0"
     inkscape:pageshadow="2"
     inkscape:zoom="1.355"
     inkscape:cx="14.112512"
     inkscape:cy="-87.036021"
     inkscape:document-units="mm"
     inkscape:current-layer="g358"
     showgrid="false"
     showguides="true"
     inkscape:snap-to-guides="false"
     inkscape:snap-grids="false"
     inkscape:snap-midpoints="true"
     inkscape:snap-others="false"
     inkscape:snap-page="true"
     inkscape:window-width="1600"
     inkscape:window-height="836"
     inkscape:window-x="0"
     inkscape:window-y="27"
     inkscape:window-maximized="1">
    <inkscape:grid
       type="xygrid"
       id="grid1445"
       originx="-39.31242"
       originy="-201.36105" />
    <sodipodi:guide
       position="-49.237969,16.681935"
       orientation="62.896844,0"
       id="guide236"
       inkscape:locked="false" />
    <sodipodi:guide
       position="-49.237969,0.040478122"
       orientation="0,239.89148"
       id="guide238"
       inkscape:locked="false" />
    <sodipodi:guide
       position="14.23332,0.040478122"
       orientation="-62.896844,0"
       id="guide240"
       inkscape:locked="false" />
    <sodipodi:guide
       position="14.23332,16.681935"
       orientation="0,-239.89148"
       id="guide242"
       inkscape:locked="false" />
  </sodipodi:namedview>
  <metadata
     id="metadata5">
    <rdf:RDF>
      <cc:Work
         rdf:about="">
        <dc:format>image/svg+xml</dc:format>
        <dc:type
           rdf:resource="http://purl.org/dc/dcmitype/StillImage" />
        <dc:title />
      </cc:Work>
    </rdf:RDF>
  </metadata>
  <g
     inkscape:label="Capa 1"
     inkscape:groupmode="layer"
     id="layer1"
     transform="translate(-39.312419,-79.042788)">
    <g
       id="g358"
       transform="matrix(0.26458333,0,0,0.26458333,33.784635,128.57744)">
      <g
         id="g324"
         class="C B"
         style="fill:none;stroke:#ffffff;stroke-width:1.68200004"
         transform="matrix(0.77414831,0,0,0.77414831,1.5420128,-191.92839)">
        <g
           id="g316"
           class="D"
           style="stroke-linecap:round" />
        <g
           id="g322"
           class="E"
           style="stroke-linejoin:round" />
      </g>
      <g
         id="g330"
         class="C"
         style="fill:#ffffff;stroke:#ffffff"
         transform="matrix(0.77414831,0,0,0.77414831,1.5420128,-191.92839)" />
      <g
         id="g1704" />
      <g
         id="g1673"
         transform="matrix(0.43169185,0,0,0.43284266,1.3980581,-202.60737)"
         display="inline"
         style="display:inline;fill:#ffffff">
        <g
           id="g1671"
           transform="matrix(1.2699241,0,0,-1.2699241,3.3662307,208.12494)"
           style="fill:#ffffff">
          <g
             id="g1669"
             transform="scale(0.1)"
             style="fill:#ffffff">
            <path
               id="path1653"
               d="m 733.07,319.32 h -64.832 c -2.28,109.43 -8.6,212.33 -18.93,308.72 h -0.57104 l -98.711,-308.72 h -49.363 l -98.113,308.72 h -0.578 c -7.28,-92.57 -11.86,-195.47 -13.77,-308.72 h -59.113 c 3.82,137.73 13.38,266.84 28.68,387.36 h 80.356 l 93.535,-284.62 h 0.57397 l 94.109,284.62 h 76.887 c 16.836,-141.15 26.778,-270.3 29.832,-387.36"
               inkscape:connector-curvature="0"
               style="fill:#ffffff;fill-rule:nonzero" />
            <path
               id="path1655"
               d="M 1014.3,605.11 C 987.899,461.86 953.075,357.76 909.85,292.82 876.171,242.781 839.276,217.762 799.1,217.762 c -10.71,0 -23.917,3.226 -39.589,9.636 v 34.532 c 7.656,-1.121 16.64,-1.719 26.972,-1.719 18.743,0 33.848,5.18 45.34,15.519 13.762,12.598 20.649,26.758 20.649,42.45 0,10.718 -5.372,32.711 -16.067,65.98 l -71.152,220.95 h 63.691 l 51.067,-165.25 c 11.472,-37.519 16.257,-63.711 14.343,-78.64 27.93,74.601 47.442,155.9 58.543,243.89 h 61.401"
               inkscape:connector-curvature="0"
               style="fill:#ffffff;fill-rule:nonzero" />
            <path
               id="path1657"
               d="m 1298.3,426.69 c 0,-32.851 -12.07,-59.82 -36.13,-80.921 -24.08,-21.008 -56.43,-31.54 -96.94,-31.54 -37.89,0 -74.61,12.122 -110.18,36.168 l 16.64,33.274 c 30.61,-15.301 58.31,-22.942 83.18,-22.942 23.33,0 41.59,5.192 54.8,15.45 13.18,10.332 21.08,24.742 21.08,43.019 0,23 -16.04,42.66 -45.47,59.153 -27.17,14.91 -81.47,46.039 -81.47,46.039 -29.42,21.461 -44.17,44.488 -44.17,82.429 0,31.379 11,56.742 32.97,76.039 22.02,19.336 50.43,29.004 85.22,29.004 35.96,0 68.66,-9.597 98.11,-28.722 l -14.96,-33.243 c -25.2,10.684 -50.05,16.047 -74.55,16.047 -19.88,0 -35.2,-4.773 -45.88,-14.375 -10.74,-9.519 -17.38,-21.769 -17.38,-36.699 0,-22.941 16.39,-42.84 46.65,-59.652 27.51,-14.918 83.14,-46.649 83.14,-46.649 30.26,-21.422 45.34,-44.261 45.34,-81.879"
               inkscape:connector-curvature="0"
               style="fill:#ffffff;fill-rule:nonzero" />
            <path
               id="path1659"
               d="m 1414.2,396.81 c -15.69,25.25 -23.55,65.769 -23.55,121.64 0,97.539 29.66,146.34 88.95,146.34 31,0 53.75,-11.672 68.3,-34.992 15.67,-25.262 23.53,-65.43 23.53,-120.52 0,-98.32 -29.66,-147.5 -88.95,-147.5 -30.99,0 -53.75,11.66 -68.28,35.028 m 230.68,-86.829 -71.2,35.11 c 6.3401,5.199 12.36,10.808 17.81,17.301 30.23,35.539 45.36,88.14 45.36,157.78 0,128.15 -50.31,192.26 -150.92,192.26 -49.35,0 -87.81,-16.25 -115.35,-48.797 -30.24,-35.582 -45.34,-87.985 -45.34,-157.23 0,-68.089 13.38,-118.04 40.16,-149.77 24.4,-28.68 61.3,-43.04 110.7,-43.04 18.43,0 35.34,2.269 50.71,6.808 l 92.72,-53.957 25.28,43.539"
               inkscape:connector-curvature="0"
               style="fill:#ffffff;fill-rule:evenodd" />
            <path
               id="path1661"
               d="m 1877.3,319.32 h -184.19 v 387.36 h 61.98 V 366.97 h 122.21 v -47.649"
               inkscape:connector-curvature="0"
               style="fill:#ffffff;fill-rule:nonzero" />
            <path
               id="path1663"
               d="m 1921.5,319.36 h 10.27 v 39.411 h 13.44 v 8.05 h -37.67 v -8.05 h 13.96 z m 78.15,0 h 9.6801 v 47.461 h -14.56 l -11.85,-32.351 -12.9,32.351 h -14.03 V 319.36 h 9.1599 v 36.121 h 0.5201 l 13.51,-36.121 h 6.9799 l 13.49,36.121 V 319.36"
               inkscape:connector-curvature="0"
               style="fill:#ffffff;fill-rule:nonzero" />
            <path
               id="path1665"
               d="m 1955.1,836.43 c -37.46,0.93695 -66.47,-2.801 -90.8,-13.106 -7.02,-2.805 -18.24,-2.805 -19.2,-11.699 3.77,-3.738 4.2201,-9.817 7.52,-14.988 5.6,-9.36 15.41,-21.977 24.32,-28.547 9.8299,-7.492 19.66,-14.953 29.97,-21.504 18.24,-11.281 38.84,-17.805 56.6,-29.043 10.33,-6.543 20.59,-14.961 30.92,-22 5.13,-3.742 8.38,-9.836 14.96,-12.152 v 1.417 c -3.3001,4.2 -4.22,10.286 -7.48,14.993 -4.67,4.644 -9.36,8.883 -14.05,13.543 -13.58,18.25 -30.45,34.148 -48.66,47.254 -14.99,10.324 -47.77,24.367 -53.83,41.632 0,0 -0.49,0.49597 -0.95,0.95697 10.3,0.95001 22.49,4.7 32.31,7.539 15.89,4.2 30.4,3.25 46.78,7.45 7.5,1.886 14.99,4.242 22.51,6.543 v 4.242 c -8.47,8.4059 -14.53,19.656 -23.42,27.605 -23.85,20.586 -50.09,40.696 -77.23,57.571 -14.53,9.363 -33.25,15.418 -48.7,23.394 -5.5899,2.813 -14.94,4.199 -18.23,8.906 -8.4301,10.293 -13.13,23.848 -19.2,36.036 -13.56,25.71303 -26.69,54.25303 -38.37,81.44303 -8.4199,18.24 -13.57,36.48 -23.87,53.34 -48.23,79.58 -100.63,127.76 -181.13,175.04 -17.32,9.84 -37.91,14.05 -59.89,19.2 -11.72,0.49 -23.41,1.4 -35.11,1.86 -7.5,3.29 -15,12.19 -21.54,16.4 -26.69,16.84 -95.46,53.34 -115.13,5.14 -12.64,-30.44 18.72,-60.38 29.49,-75.83 7.9499,-10.75 18.26,-22.94 23.85,-35.09 3.2801,-7.96 4.22,-16.4 7.51,-24.81 7.48,-20.59 14.49,-43.53 24.34,-62.73 5.13,-9.8299 10.74,-20.14 17.29,-28.99 3.7799,-5.1799 10.31,-7.49 11.72,-15.94 -6.53,-9.35 -7.04,-23.39 -10.78,-35.1 -16.84,-52.89 -10.3,-118.41003 13.58,-157.25003 7.47,-11.699 25.28,-37.449 49.15,-27.597 21.06,8.4098 16.38,35.089 22.46,58.476 1.3999,5.6562 0.4599,9.3668 3.26,13.106 v -0.94592 c 6.5499,-13.086 13.12,-25.691 19.2,-38.84 14.53,-22.91 39.78,-46.785 60.86,-62.683 11.2,-8.457 20.1,-22.942 34.14,-28.106 v 1.414 h -0.92 c -2.82,4.1998 -7.0199,6.086 -10.77,9.3478 -8.4201,8.4299 -17.76,18.731 -24.34,28.086 -19.65,26.199 -36.99,55.234 -52.4,85.184 -7.5099,14.543 -14.05,30.441 -20.14,44.941 -2.8001,5.5901 -2.8001,14.039 -7.4901,16.84 -7.0399,-10.285 -17.31,-19.191 -22.45,-31.789 -8.9,-20.149 -9.8299,-44.949 -13.13,-70.703 -1.86,-0.48895 -0.92,0 -1.86,-0.92999 -14.96,3.7419 -20.11,19.184 -25.74,32.246 -14.04,33.274 -16.4,86.62704 -4.2099,125.01004 3.26,9.8101 17.34,40.7 11.7,50.06 -2.8299,8.9299 -12.18,14.03 -17.32,21.08 -6.0701,8.89 -12.66,20.1 -16.83,29.95 -11.24,26.2 -16.89,55.23 -29.02,81.43 -5.62,12.19 -15.47,24.83 -23.4,36.04 -8.91,12.64 -18.73,21.53 -25.76,36.49 -2.3201,5.16 -5.6001,13.59 -1.87,19.19 0.9199,3.75 2.8199,5.1601 6.5699,6.1001 6.0501,5.1499 23.39,-1.39 29.46,-4.2 17.33,-7 31.84,-13.59 46.33,-23.4 6.5599,-4.6899 13.58,-13.58 21.99,-15.94 h 9.8499 c 14.97,-3.25 31.83,-0.91 45.88,-5.14 24.79,-7.95 47.25,-19.65 67.39,-32.29 61.29,-38.85 111.84,-94.09 145.99,-160.07 5.63,-10.75 7.99,-20.59 13.13,-31.8 9.83,-22.98 22.01,-46.38 31.82,-68.82304 9.8201,-22 19.2,-44.446 33.26,-62.727 7,-9.812 35.09,-14.961 47.73,-20.113 9.3401,-4.199 23.87,-7.949 32.3,-13.09 15.91,-9.812 31.79,-21.062 46.79,-31.844 7.4699,-5.617 30.88,-17.304 32.29,-26.679"
               inkscape:connector-curvature="0"
               style="fill:#ffffff;fill-rule:evenodd" />
            <path
               id="path1667"
               d="m 1477.7,1243.2 c -7.9399,0 -13.54,-0.96 -19.19,-2.3501 v -0.9399 h 0.91 c 3.7799,-7.47 10.34,-12.66 14.98,-19.2 3.77,-7.4902 7.0499,-14.95 10.79,-22.45 0.4599,0.4599 0.9099,0.9501 0.9099,0.9501 6.5999,4.6599 9.87,12.14 9.87,23.39 -2.83,3.3001 -3.2701,6.5501 -5.63,9.8401 -2.8,4.6699 -8.89,7.01 -12.64,10.76"
               inkscape:connector-curvature="0"
               style="fill:#ffffff;fill-rule:evenodd" />
          </g>
        </g>
      </g>
    </g>
  </g>
  <style
     id="style302"><![CDATA[.B{stroke-width:1.682}.C{stroke:#fff}.D{stroke-linecap:round}.E{stroke-linejoin:round}]]></style>
</svg>
